<?xml version="1.0" encoding="UTF-8"?>
<svg id="_图层_1" data-name="图层 1" xmlns="http://www.w3.org/2000/svg" viewBox="0 0 438.22 437.65">
  <path d="M175.84,165.6l85.05-.16c6.65.58,10.69,4.61,11.27,11.27-1.56,27.03,2.01,56.27,0,83.04-.52,6.95-4.19,11.2-11.27,11.81-27.02-1.56-56.26,2.01-83.02,0-6.95-.52-11.2-4.19-11.81-11.27-2.32-26.81,1.77-56.95.03-84.11.57-5.62,4.21-9.61,9.75-10.58ZM234.22,207.23c-2.26-13.52-16.25-19.33-28.78-18.07-16.92,1.71-29.87,19.46-17.73,34.37.45.55,4.67,4.12,4.73,4.44.6,2.95-1.97,5.67-.26,7.83.45.02,5.46-3.99,7.28-4.29s9.55,2.06,10.58,1c-3.37-14.69,10.45-25.67,24.18-25.29ZM251.63,216.74c-12.27-14.44-42.2-7.69-39.35,13.8,1.49,11.24,14.44,15.85,24.4,15.16,1.59-.11,3.47-1.17,4.83-.99s5.58,3.3,6.15,3.19c1.12-.75.55-.82.46-1.53-.2-1.53-1.14-2.91-.62-4.67.41-1.38,3.75-3.12,4.98-4.93,3.82-5.62,3.55-14.84-.85-20.03Z"/>
  <path d="M7.12.14L76.25,0c4.2.62,6.49,3.92,6.89,7.95,2.1,21.1-1.65,45.65,0,67.11-.15,3.87-3.59,7.27-7.42,7.42-21.47-1.65-46,2.1-67.1,0-4.42-.44-7.53-2.92-7.97-7.42-2.07-21.32,1.61-45.97.01-67.65C1.33,3.6,3.46,1.27,7.12.14ZM15.35,11.64c-.98.76-2.99,2.26-3.07,3.45-1.15,16.87.75,34.65-.08,51.72.6,2.85,1.86,3.86,4.67,4.12,16.23,1.49,34.69-1.19,51.16,0,1.74-.11,3.47-1.86,3.57-3.57-1.19-16.47,1.49-34.94,0-51.17-.26-2.81-1.27-4.07-4.12-4.67l-52.12.11Z"/>
  <path d="M361.01.14l69.13-.14c4.11.69,6.73,3.32,7.42,7.42-1.6,21.68,2.08,46.32.01,67.65-.44,4.54-3.6,6.99-7.97,7.42-21.1,2.1-45.63-1.65-67.1,0-4.1-.27-7.03-3.42-7.42-7.42-2.07-21.33,1.62-45.97.01-67.65.58-3.49,2.46-6.22,5.91-7.28ZM369.81,11.69c-1.72.81-3.19,1.9-3.17,3.98l-.02,51.71c.11,1.74,1.86,3.47,3.57,3.57,16.47-1.19,34.93,1.49,51.16,0,2.81-.26,4.07-1.27,4.67-4.12-.56-15.66.65-31.72,0-47.32-.13-3.2.34-5.92-2.92-7.53l-53.3-.28Z"/>
  <path d="M7.13,354.67l69.12-.14c3.59.43,6.79,3.79,6.88,7.41-1.65,21.47,2.1,46.01,0,67.11-.44,4.42-2.92,7.53-7.42,7.97-21.16,2.05-45.59-1.62-67.1,0-4.37-.43-7.19-3.07-7.95-7.43v-68.18c.48-3.59,3.09-5.79,6.46-6.73ZM15.35,366.2c-1.68.38-2.95,2.31-3.16,3.98,1.42,15.96-1.81,35.01.01,50.6.56,4.79,4.28,4.52,7.95,4.68,16.08.7,32.59-.31,48.64-.32,2.16-1.13,2.58-1.97,2.8-4.34,1.5-16.22-1.2-34.7,0-51.17l-2.24-3.26-54-.17Z"/>
  <path d="M347.26,321.12c1.01-.29,4.3-.3,5.36-.1,3.57.67,3.34,8.48.83,9.59-1.06.47-4.57.49-5.74.27-3.66-.69-3.4-8.92-.45-9.76Z"/>
  <path d="M323.63,344.76c1.01-.29,4.3-.3,5.36-.1,3.57.67,3.34,8.48.83,9.59-1.06.47-4.57.49-5.74.27-3.66-.69-3.4-8.92-.45-9.76Z"/>
  <path d="M370.89,321.12c1.01-.29,4.3-.3,5.36-.1,3.57.67,3.34,8.48.83,9.59-1.06.47-4.57.49-5.74.27-3.66-.69-3.4-8.92-.45-9.76Z"/>
  <path d="M276.36,368.38c.94-.28,4.36-.28,5.37-.09,3.57.67,3.34,8.48.83,9.59-1.32.58-6.22.66-7.17-.49-1.15-1.97-1.8-8.17.97-9.01Z"/>
  <path d="M418.15,368.39c.99-.28,4.33-.3,5.37-.1,3.51.67,2.73,8.67.84,9.62-.89.44-4.69.45-5.76.25-3.66-.69-3.4-8.92-.45-9.76Z"/>
  <path d="M235.75,321.13c1.85,2.71,1.82,6.99,0,9.65-3.97.01-8.15,1.68-8.57-3.61-.09-1.14.33-1.77.39-2.66.04-.69-.48-1.49-.39-1.77.05-.14,2.09-1.7,2.35-1.74.79-.15,5.78-.12,6.22.13Z"/>
  <path d="M11.92,322.42c.21.24.85.21.85.56,0,.47-.52,1.1-.49,1.65.32,5.45.13,7.57-6.92,6.26-3.64-.68-3.63-9.19,0-9.87,2.44-.45,4.95-.46,6.56,1.4Z"/>
  <path d="M324.2,297.45c1.27-.2,6.37.25,7.02,1.56,1.31,6.44-.14,9.55-7.14,8.24-3.6-.67-3.73-9.18.12-9.8Z"/>
  <path d="M331.36,235.15c-2.66,1.82-6.94,1.85-9.65,0-.1-3.3-1.08-6.38,1.78-8.58,7.55.17,8.94.32,7.87,8.58Z"/>
  <path d="M323.35,12.01c-2.5-1.93-2.95-9.1.73-9.79,2.33-.44,6.83-.5,7.39,2.47,1.46,7.77-2.06,7.1-8.12,7.31Z"/>
  <path d="M371.47,273.87c.47-.12,5.32.4,5.79.54,2.3.68,2.23,7.88-.17,8.94-1.06.47-4.57.49-5.74.27-3.44-.64-3.95-8.75.13-9.75Z"/>
  <path d="M372.43,297.64c1.4-.22,5.34-.04,6.05,1.38,1.31,6.44-.14,9.55-7.14,8.24-3.41-.64-2.65-5.66-2.22-8.24.54-1.07,2.21-1.2,3.31-1.37Z"/>
  <path d="M394.52,368.39c1.36-.39,5.9-.43,6.8.66,1.14,1.39,1.23,7.94-.59,8.85-2.2.38-6.88,1.05-7.96-1.4-.85-1.93-.78-7.39,1.75-8.12Z"/>
  <path d="M331.36,27.06c1.76,8.5-2.47,10.22-9.5,7.04l-.15-7.04c2.71-1.85,6.99-1.82,9.65,0Z"/>
  <path d="M240.41,330.72c-1.97-.62-1.7-7.98-.03-9.6l7.03.15c1.57.93,1.41,7.24.6,8.85-.89,1.13-6.23,1.03-7.6.59Z"/>
  <path d="M354.99,121.6c.03,1.84.75,6.53-.65,7.63-1.64.72-7.6,1.03-8.62-.27l-.37-7.36c2.71-1.85,6.99-1.82,9.65,0Z"/>
  <path d="M354.99,140.61c-2.71,1.85-6.99,1.82-9.65,0l.37-7.36c1.03-1.3,6.98-.99,8.62-.27,1.4,1.1.68,5.8.65,7.63Z"/>
  <path d="M436.33,321.13c3.31,7.5,1.32,11.9-7.36,9.28-2.29-7.3-1.01-10.91,7.36-9.28Z"/>
  <path d="M354.99,334.32c.03,1.84.75,6.53-.65,7.63-1.64.72-7.6,1.03-8.62-.27l-.37-7.36c2.71-1.85,6.99-1.82,9.65,0Z"/>
  <path d="M354.99,310.68c.03,1.84.75,6.53-.65,7.63-1.64.72-7.6,1.03-8.62-.27l-.37-7.36c2.71-1.85,6.99-1.82,9.65,0Z"/>
  <path d="M354.99,388.5c-2.71,1.85-6.99,1.82-9.65,0l.37-7.36c1.03-1.3,6.98-.99,8.62-.27,1.4,1.1.68,5.8.65,7.63Z"/>
  <path d="M354.99,187.88c-2.71,1.85-6.99,1.82-9.65,0l.37-7.36c1.03-1.3,6.98-.99,8.62-.27,1.4,1.1.68,5.8.65,7.63Z"/>
  <path d="M354.99,435.77c-2.71,1.85-6.99,1.82-9.65,0l.37-7.36c1.03-1.3,6.98-.99,8.62-.27,1.4,1.1.68,5.8.65,7.63Z"/>
  <path d="M117.61,344.76c1.85,2.71,1.82,6.99,0,9.65l-7.36-.37c-1.3-1.03-.99-6.98-.27-8.63,1.1-1.4,5.79-.68,7.63-.65Z"/>
  <path d="M122.24,354.41c-1.82-2.66-1.85-6.94,0-9.65l7.36.37c1.3,1.03.99,6.98.27,8.63-1.1,1.4-5.79.68-7.63.65Z"/>
  <path d="M141.24,344.76c1.85,2.71,1.82,6.99,0,9.65l-7.36-.37c-1.3-1.03-.99-6.98-.27-8.63,1.1-1.4,5.79-.68,7.63-.65Z"/>
  <path d="M145.86,354.41c-1.82-2.66-1.85-6.94,0-9.65l7.36.37c1.3,1.03.99,6.98.27,8.63-1.1,1.4-5.79.68-7.63.65Z"/>
  <path d="M164.86,344.76c1.85,2.71,1.82,6.99,0,9.65l-7.36-.37c-1.3-1.03-.99-6.98-.27-8.63,1.1-1.4,5.79-.68,7.63-.65Z"/>
  <path d="M188.49,344.76c1.85,2.71,1.82,6.99,0,9.65l-7.36-.37c-1.3-1.03-.99-6.98-.27-8.63,1.1-1.4,5.79-.68,7.63-.65Z"/>
  <path d="M353.87,286.01c1.79.56,2.25,8.84-.65,9.2-1.33.16-5.57.16-6.74-.21-1.79-.56-2.25-8.84.65-9.2,1.33-.16,5.57-.16,6.74.21Z"/>
  <path d="M354.99,263.41c.03,1.84.75,6.53-.65,7.63-1.64.72-7.6,1.03-8.62-.27l-.37-7.36c2.71-1.85,6.99-1.82,9.65,0Z"/>
  <path d="M193.12,354.41c-1.82-2.66-1.85-6.94,0-9.65l7.36.37c1.3,1.03.99,6.98.27,8.63-1.1,1.4-5.79.68-7.63.65Z"/>
  <path d="M354.99,239.78c.03,1.84.75,6.53-.65,7.63-1.64.72-7.6,1.03-8.62-.27l-.37-7.36c2.71-1.85,6.99-1.82,9.65,0Z"/>
  <path d="M354.99,211.51c-2.71,1.85-6.99,1.82-9.65,0l.37-7.36c1.03-1.3,6.98-.99,8.62-.27,1.4,1.1.68,5.8.65,7.63Z"/>
  <path d="M216.75,354.41c-1.82-2.66-1.85-6.94,0-9.65l7.36.37c1.3,1.03.99,6.98.27,8.63-1.1,1.4-5.79.68-7.63.65Z"/>
  <path d="M240.38,354.41c-1.82-2.66-1.85-6.94,0-9.65l7.36.37c1.3,1.03.99,6.98.27,8.63-1.1,1.4-5.79.68-7.63.65Z"/>
  <path d="M318.18,378.05h-6.91c-1.56-1.57-1.87-8.15-.44-9.28,1.56-.72,7.06-1.02,8.07.27.92,1.62.83,8.12-.72,9Z"/>
  <path d="M330.24,238.74c1.82.57,1.56,6.78.75,8.4-7.29,2.29-10.91,1.01-9.27-7.36.84-1.48,6.94-1.53,8.52-1.04Z"/>
  <path d="M264.01,354.41c-1.82-2.66-1.85-6.94,0-9.65l7.36.37c1.3,1.03.99,6.98.27,8.63-1.1,1.4-5.79.68-7.63.65Z"/>
  <path d="M354.99,216.14c.03,1.84.75,6.53-.65,7.63-1.64.72-7.6,1.03-8.62-.27l-.37-7.36c2.71-1.85,6.99-1.82,9.65,0Z"/>
  <path d="M240.38,378.05c-3.31-7.5-1.32-11.9,7.36-9.28,2.29,7.3,1.01,10.91-7.36,9.28Z"/>
  <path d="M334.9,354.41c-1.82-2.66-1.85-6.94,0-9.65l7.36.37c1.3,1.03.99,6.98.27,8.63-1.1,1.4-5.79.68-7.63.65Z"/>
  <path d="M389.07,344.76c1.85,2.71,1.82,6.99,0,9.65l-7.36-.37c-1.3-1.03-.99-6.98-.27-8.63,1.1-1.4,5.79-.68,7.63-.65Z"/>
  <path d="M98.61,354.41c-1.82-2.66-1.85-6.94,0-9.65l7.36.37c1.3,1.03.99,6.98.27,8.63-1.1,1.4-5.79.68-7.63.65Z"/>
  <path d="M145.86,378.05c-1.85-2.71-1.82-6.99,0-9.65l7.36.37c2.29,7.3,1.01,10.91-7.36,9.28Z"/>
  <path d="M141.24,368.4c1.82,2.66,1.85,6.94,0,9.65l-7.03-.15c-1.57-.93-1.41-7.24-.6-8.85,1.1-1.4,5.8-.68,7.63-.65Z"/>
  <path d="M98.61,378.05c-1.85-2.71-1.82-6.99,0-9.65l7.36.37c2.29,7.3,1.01,10.91-7.36,9.28Z"/>
  <path d="M164.86,368.4c1.82,2.66,1.85,6.94,0,9.65l-7.03-.15c-1.57-.93-1.41-7.24-.6-8.85,1.1-1.4,5.8-.68,7.63-.65Z"/>
  <path d="M331.36,97.97c.03,1.83.75,6.53-.65,7.63-7.55,1.66-10.45.73-9-7.63,2.71-1.85,6.99-1.82,9.65,0Z"/>
  <path d="M169.49,378.05c-1.85-2.71-1.82-6.99,0-9.65l7.36.37c2.29,7.3,1.01,10.91-7.36,9.28Z"/>
  <path d="M193.12,378.05c-1.85-2.71-1.82-6.99,0-9.65l7.36.37c2.29,7.3,1.01,10.91-7.36,9.28Z"/>
  <path d="M331.36,46.07c-2.66,1.82-6.94,1.85-9.65,0l.15-7.04c.93-1.57,7.24-1.41,8.85-.6,1.4,1.1.68,5.8.65,7.63Z"/>
  <path d="M378.62,145.24c1.63,8.37-1.98,9.65-9.27,7.36l-.37-7.36c2.66-1.82,6.94-1.85,9.65,0Z"/>
  <path d="M330.24,286.01c1.79.56,2.25,8.84-.65,9.2-7.61.95-8.92-.62-7.87-8.16.84-1.48,6.94-1.53,8.52-1.04Z"/>
  <path d="M389.07,378.05h-6.91c-3.48-7.62-.93-12.25,7.63-9,.98,1.25.79,8.14-.72,9Z"/>
  <path d="M436.33,368.4c1.82,2.66,1.85,6.94,0,9.65l-7.03-.15c-1.57-.93-1.41-7.24-.6-8.85,1.1-1.4,5.8-.68,7.63-.65Z"/>
  <path d="M378.62,164.24c-2.71,1.85-6.99,1.82-9.65,0l.37-7.36c7.29-2.29,10.91-1.01,9.27,7.36Z"/>
  <path d="M378.62,140.61c-2.71,1.85-6.99,1.82-9.65,0l.37-7.36c7.29-2.29,10.91-1.01,9.27,7.36Z"/>
  <path d="M331.36,168.87c.03,1.83.75,6.53-.65,7.63-7.55,1.66-10.45.73-9-7.63,2.71-1.85,6.99-1.82,9.65,0Z"/>
  <path d="M378.62,168.87c1.63,8.37-1.98,9.65-9.27,7.36l-.37-7.36c2.66-1.82,6.94-1.85,9.65,0Z"/>
  <path d="M331.36,187.88c-2.66,1.82-6.94,1.85-9.65,0l.15-7.04c.93-1.57,7.24-1.41,8.85-.6,1.4,1.1.68,5.8.65,7.63Z"/>
  <path d="M330.24,380.55c1.79.56,1.75,7.67.48,8.67-1.62.92-8.11.83-9-.72v-6.91c.84-1.48,6.94-1.53,8.52-1.04Z"/>
  <path d="M331.36,22.43c-2.66,1.82-6.94,1.85-9.65,0l.15-7.04c.93-1.57,7.24-1.41,8.85-.6,1.4,1.1.68,5.8.65,7.63Z"/>
  <path d="M378.62,334.32v6.91c-7.62,3.48-12.25.93-9-7.63,1.25-.98,8.14-.79,9,.72Z"/>
  <path d="M331.36,435.77c-2.66,1.82-6.94,1.85-9.65,0l.15-7.04c.93-1.57,7.24-1.41,8.85-.6,1.4,1.1.68,5.8.65,7.63Z"/>
  <path d="M378.62,381.59v6.91c-1.57,1.56-8.15,1.87-9.27.44-2.62-8.68,1.77-10.66,9.27-7.36Z"/>
  <path d="M331.36,69.7c-2.66,1.82-6.94,1.85-9.65,0l.15-7.04c.93-1.57,7.24-1.41,8.85-.6,1.4,1.1.68,5.8.65,7.63Z"/>
  <path d="M378.62,187.88c-2.71,1.85-6.99,1.82-9.65,0l.37-7.36c7.29-2.29,10.91-1.01,9.27,7.36Z"/>
  <path d="M378.62,192.51c1.63,8.37-1.98,9.65-9.27,7.36l-.37-7.36c2.66-1.82,6.94-1.85,9.65,0Z"/>
  <path d="M394.52,321.12c1.42-.41,6.32-.53,7.03.98s.84,7.7-.82,8.53c-.91.45-4.67.46-5.76.26-3.66-.69-3.4-8.92-.45-9.76Z"/>
  <path d="M389.07,321.13c1.51.86,1.7,7.75.72,9-8.56,3.25-11.11-1.38-7.63-9h6.91Z"/>
  <path d="M331.36,211.51c-2.66,1.82-6.94,1.85-9.65,0l.15-7.04c.93-1.57,7.24-1.41,8.85-.6,1.4,1.1.68,5.8.65,7.63Z"/>
  <path d="M331.36,216.14c.03,1.83.75,6.53-.65,7.63-7.55,1.66-10.45.73-9-7.63,2.71-1.85,6.99-1.82,9.65,0Z"/>
  <path d="M331.36,93.34c-2.66,1.82-6.94,1.85-9.65,0l.15-7.04c.93-1.57,7.24-1.41,8.85-.6,1.4,1.1.68,5.8.65,7.63Z"/>
  <path d="M318.18,321.13c3.31,7.5,1.32,11.9-7.36,9.28-1.43-1.12-1.11-7.7.44-9.28h6.91Z"/>
  <path d="M378.62,97.97c1.63,8.37-1.98,9.65-9.27,7.36l-.37-7.36c2.66-1.82,6.94-1.85,9.65,0Z"/>
  <path d="M252.72,321.1c.81-.27,4.45-.25,5.39-.08,3.57.67,3.34,8.48.83,9.59-1.29.57-6.29.66-7.18-.49-1.23-1.57-1-8.37.97-9.03Z"/>
  <path d="M378.62,216.14c1.63,8.37-1.98,9.65-9.27,7.36l-.37-7.36c2.66-1.82,6.94-1.85,9.65,0Z"/>
  <path d="M378.62,116.97c-2.71,1.85-6.99,1.82-9.65,0l.37-7.36c7.29-2.29,10.91-1.01,9.27,7.36Z"/>
  <path d="M216.75,330.78c-1.82-2.66-1.85-6.94,0-9.65l7.03.15c1.57.93,1.41,7.24.6,8.85-1.1,1.4-5.8.68-7.63.65Z"/>
  <path d="M188.49,321.13c1.85,2.71,1.82,6.99,0,9.65l-7.36-.37c-2.29-7.3-1.01-10.91,7.36-9.28Z"/>
  <path d="M169.49,330.78c-1.82-2.66-1.85-6.94,0-9.65l7.03.15c1.57.93,1.41,7.24.6,8.85-1.1,1.4-5.8.68-7.63.65Z"/>
  <path d="M141.24,321.13c1.85,2.71,1.82,6.99,0,9.65l-7.36-.37c-2.29-7.3-1.01-10.91,7.36-9.28Z"/>
  <path d="M122.24,330.78c-1.82-2.66-1.85-6.94,0-9.65l7.03.15c1.57.93,1.41,7.24.6,8.85-1.1,1.4-5.8.68-7.63.65Z"/>
  <path d="M117.61,321.13c1.85,2.71,1.82,6.99,0,9.65l-7.36-.37c-2.29-7.3-1.01-10.91,7.36-9.28Z"/>
  <path d="M98.61,330.78c-1.82-2.66-1.85-6.94,0-9.65l7.03.15c1.57.93,1.41,7.24.6,8.85-1.1,1.4-5.8.68-7.63.65Z"/>
  <path d="M46.72,321.13c1.85,2.71,1.82,6.99,0,9.65l-7.36-.37c-2.29-7.3-1.01-10.91,7.36-9.28Z"/>
  <path d="M378.62,263.41c1.63,8.37-1.98,9.65-9.27,7.36l-.37-7.36c2.66-1.82,6.94-1.85,9.65,0Z"/>
  <path d="M331.36,263.41c.03,1.83.75,6.53-.65,7.63-7.55,1.66-10.45.73-9-7.63,2.71-1.85,6.99-1.82,9.65,0Z"/>
  <path d="M331.36,116.97c-2.66,1.82-6.94,1.85-9.65,0l.15-7.04c.93-1.57,7.24-1.41,8.85-.6,1.4,1.1.68,5.8.65,7.63Z"/>
  <path d="M346.71,250.76c2.02-.59,7.9-.77,8.39,1.83,1.18,6.19-1.24,8.54-7.39,7.39-3.58-.67-3.28-8.55-1-9.22Z"/>
  <path d="M347.26,392.03c1.73-.5,6.3-.52,7.34,1.22.77,1.3,1.02,6.51-.26,7.51-1.64.72-7.6,1.03-8.62-.27-1.16-1.47-1.04-7.72,1.54-8.46Z"/>
  <path d="M341.78,368.45c1.86.58,1.67,7.96.44,9.18-1.1,1.09-5.61.43-7.32.41-1.82-2.66-1.85-6.94,0-9.65.61-.35,5.95-.24,6.88.06Z"/>
  <path d="M394.52,344.76c1.43-.41,6.3-.53,7.03.98.66,1.36.7,7.78-.82,8.52-.93.45-4.66.46-5.76.26-3.66-.69-3.4-8.92-.45-9.76Z"/>
  <path d="M294.55,321.13c3.1,7.32,1.77,11.4-6.91,9.65-1.82-2.66-1.85-6.94,0-9.65h6.91Z"/>
  <path d="M341.81,321.13c3.1,7.32,1.77,11.4-6.91,9.65-1.82-2.66-1.85-6.94,0-9.65h6.91Z"/>
  <path d="M4.36,285.94c1.47-.43,6.26-.41,7.34.68,1.2,1.21,1.36,7.08-.27,8.04-1.32.77-7.05,1.02-8.05-.26-.7-1.81-1.34-7.78.99-8.46Z"/>
  <path d="M401.69,105.42c-1.08,1.08-6.91.95-8.44.18-1.35-1.06-.82-6.01-.5-7.75.93-1.58,6.8-1.39,8.28-.57,1.83,1.01.65,2.15.77,3.56s1.16,3.31-.12,4.58Z"/>
  <path d="M229.11,144.13c1.31-.4,6.53-.4,7.37.67.72,1.56,1.02,7.06-.27,8.08-1.8.71-6.67,1.08-8.06-.3-1.29-1.28-1.47-7.7.97-8.44Z"/>
  <path d="M64.21,226.6c.64-.11,1.71.46,2.66.45.88,0,1.77-.68,2.66-.49,2.83.61,2.73,8.66.94,9.53-1.32.64-7.23.7-7.97-.82-.78-1.61-.78-8.25,1.72-8.67Z"/>
  <path d="M283.55,416.23c1,1,1.14,7.2-.09,8.17-2.26.44-7.37,1.66-8.63-.32-.48-.76-.05-7.34.83-8.03,1.44-.78,6.84-.87,7.89.18Z"/>
  <path d="M276.37,25.96c1.42-.41,6.78-.39,7.59.98.32,1.74.85,6.69-.5,7.75-1.82.78-7.55,1.05-8.8-.59-.11-2.02-.35-7.54,1.71-8.15Z"/>
  <path d="M217.02,25.96c1.44-.42,6.85-.52,7.59.99.79,1.62.73,7.71-1.39,8.54-2.31-.74-6.26,1.13-7.39-1.4-.68-1.52-.87-7.51,1.2-8.12Z"/>
  <path d="M229.11,132.58c1.3-.4,6.53-.4,7.36.67.72,1.56,1.02,7.06-.27,8.08-2.14.75-7.29,1.24-8.63-.87-.05-2.05-1.09-7.08,1.54-7.88Z"/>
  <path d="M106.05,401.15l-6.76.43c-2.68-.34-2.47-8.42-.81-9.4,1.74-.32,6.69-.85,7.75.5.76,1.58.91,7.29-.19,8.46Z"/>
  <path d="M299.99,215.03c1.39-.42,6.79-.37,7.59.99.32,1.74.85,6.69-.5,7.75-1.62.82-7.95.96-8.89-.6.61-2.25-1-7.29,1.79-8.14Z"/>
  <path d="M418.16,215.05c8.08-1.75,8.11,1.89,7.32,8.38-1.37,1.18-7.85,1.37-8.87.07-.64-2.51-1.69-7.75,1.55-8.45Z"/>
  <path d="M405.25,298.04c2.11-.22,6.91-1.08,8.15.67.84,1.17.94,7.12-.26,8.06-1.56.72-7.06,1.02-8.07-.27-.76-1.58-.91-7.28.19-8.46Z"/>
  <path d="M298.63,310.15c1.17-1.09,6.88-.95,8.45-.19,1.29,1.02,1,6.52.27,8.08-1.01,1.28-7.58,1.12-8.88-.06l.15-7.83Z"/>
  <path d="M389.65,298c.82.51,1,7.31.13,8.5-1.02,1.29-6.52,1-8.07.27-1.28-1.01-1.12-7.59.06-8.88l7.88.11Z"/>
  <path d="M229.11,333.21c1.31-.4,6.53-.4,7.37.67.72,1.56,1.02,7.06-.27,8.08-1.56.72-7.06,1.02-8.08-.27s-1.58-7.69.98-8.47Z"/>
  <path d="M152.78,12.02c-.43.26-7.14-.61-7.63-1.23-.91-1.16-.87-7.44.6-8.3,1.74-.32,6.69-.85,7.75.5.93,1.63.82,8.12-.72,9.04Z"/>
  <path d="M416.79,259.32c-1-1-1.14-7.2.09-8.17,1.84-.78,7.55-1.05,8.83.59.19.24.06,5.83,0,6.13-.64,3.12-6.58,2.44-8.92,1.45Z"/>
  <path d="M389.65,401.18l-7.88.11c-1.18-1.3-1.34-7.88-.06-8.88,1.56-.72,7.06-1.02,8.07.27.87,1.18.69,7.98-.13,8.5Z"/>
  <path d="M401.75,404.63l.58,6.28c-.16,3.43-8.61,2.99-9.58,1.34-.32-1.74-.85-6.69.5-7.75,1.18-.87,7.98-.68,8.49.13Z"/>
  <path d="M64.68,273.99c.25-.06,4.72-.06,4.98-.02,2.65.38,2.52,7.7.81,9.39-.76.45-5.27.45-6.31.25-2.83-.53-3.27-8.66.52-9.63Z"/>
  <path d="M292.21,297.67c.79,0,1.26-.22,2.08.31,1.91,1.22,2.06,6.43,1.2,8.2-.74,1.53-6.65,1.47-7.97.82-1.53-.74-1.47-6.65-.82-7.97s4.06-1.36,5.52-1.35Z"/>
  <path d="M429.39,226.57c7.82.1,9.97.97,7.38,9.29-1.07.84-7.15.9-8.07-.27-.92-1.68-.83-8.02.69-9.02Z"/>
  <path d="M274.96,404.63c.51-.82,7.31-1,8.49-.13,1.18.92,1.12,7,.27,8.08-8.35,2.65-10.04.17-8.77-7.94Z"/>
  <path d="M153.31,274.4c1.09,1.18.95,6.88.19,8.46-1.06,1.35-6.01.82-7.75.5-3.5-7.86-.16-10.58,7.57-8.96Z"/>
  <path d="M425.34,152.68c-1.18,1.09-6.88.95-8.46.19-1.35-1.06-.82-6.01-.5-7.75,7.85-3.5,10.58-.16,8.96,7.57Z"/>
  <path d="M12.69,152.17c-.84,1.47-7.47,1.65-9.05.7-1.35-1.06-.82-6.01-.5-7.75.87-1.47,7.14-1.51,8.3-.6,1.35,1.06.54,5.73,1.25,7.65Z"/>
  <path d="M252.75,25.96c1.43-.41,6.77-.39,7.58.98.32,1.68.52,4.15.3,5.8-.6,4.35-4.53,1.74-7.47,2.77-2.26-.3-3.33-8.71-.41-9.55Z"/>
  <path d="M134.59,25.96c1.33-.39,6.52-.41,7.36.66.72,1.55,1.02,7.07-.27,8.08-1.13.88-6.96,1.25-8.06-.29-.94-1.32-1.16-7.82.98-8.45Z"/>
  <path d="M425.38,294.55c-.51.82-7.31,1-8.49.13-1.18-.92-1.12-7-.27-8.08,8.35-2.65,10.04-.17,8.77,7.94Z"/>
  <path d="M425.36,180.39c.15,1.96.99,6.92-.68,8.2-1.54.84-7.4.93-8.3-.6-.32-1.74-.85-6.69.5-7.75,1.21-.85,7.91-.72,8.47.15Z"/>
  <path d="M425.45,380.92v8.24c-6.95,1.44-10.9,1.57-9.33-6.85.6-3.22,6.9-1.9,9.33-1.39Z"/>
  <path d="M274.96,294.55c-1.27-8.11.42-10.6,8.77-7.94.84,1.07.9,7.15-.27,8.08-1.18.87-7.98.69-8.49-.13Z"/>
  <path d="M36.34,204.56l-1.27,7.67c-1.07.84-7.15.9-8.07-.27-.72-1.56-1.02-7.06.27-8.08,2.79-.92,6.5-.95,9.07.69Z"/>
  <path d="M252.75,96.86c1.42-.41,6.77-.39,7.58.98.32,1.74.85,6.69-.5,7.75-1.69.71-6.84,1.06-8.06-.29-1.1-1.23-1.56-7.7.98-8.44Z"/>
  <path d="M310.74,401.14c-1.09-1.17-.95-6.88-.19-8.46,1.02-1.29,6.52-1,8.07-.27,1.18.92,1.12,7,.27,8.08-.92,1.03-7.62,1.23-8.16.65Z"/>
  <path d="M134.59,2.32c1.2-.35,6.25-.36,7.05.43,1.19,1.18,1.29,6.97.01,8.29-1.04,1.07-6.95,1.26-8.03-.27-.96-1.34-1.15-7.83.98-8.45Z"/>
  <path d="M252.74,404.12c1.33-.39,6.52-.41,7.36.66.72,1.56,1.02,7.06-.27,8.08-2.15.75-7.27,1.24-8.63-.87-.15-1.81-.59-7.24,1.54-7.87Z"/>
  <path d="M133.79,424.78c-1.09-1.18-.95-6.88-.19-8.46,1.06-1.35,6.01-.82,7.75-.5,3.5,7.86.16,10.58-7.57,8.96Z"/>
  <path d="M151.14,250.21c3.47-.11,3.59,6.61,2.58,8.69-.87,1.8-6.14,1.14-7.98.83-1.39-.82-1.47-6.65-.82-7.98.56-1.15,4.78-1.49,6.22-1.54Z"/>
  <path d="M12.71,128.57c-2.6,1.59-6.26,1.6-9.07.66-1.35-1.06-.82-6.01-.5-7.75.82-1.4,6.64-1.46,7.97-.82,2.63,1.27.15,5.7,1.6,7.91Z"/>
  <path d="M425.38,109.47c-.25,2.13,1.15,6.8-.7,8.22-1.54.84-7.4.93-8.3-.6-.32-1.74-.85-6.69.5-7.75,1.18-.87,7.99-.68,8.49.13Z"/>
  <path d="M259.92,416.23c2.48,8.28-.16,9.97-7.98,8.54-1-.89-1.02-7.39-.19-8.45,1.28-1.26,7.18-1.08,8.17-.09Z"/>
  <path d="M4.92,96.87c1.56-.34,6.28-.6,7.03.97.18.37.72,5.19.67,5.71-.38,3.52-6.96,3.07-9.24,1.77-.64-2.51-1.69-7.75,1.55-8.45Z"/>
  <path d="M298.59,247.28l-.4-6.82c.38-2.69,8.42-2.46,9.39-.81.32,1.74.85,6.69-.5,7.75-1.18.87-7.98.69-8.49-.13Z"/>
  <path d="M307.18,282.95c-7.05,1.8-9.31,1.46-8.93-6.2.19-3.88,6.52-2.76,9.11-1.69.83,1.06.8,6.9-.18,7.89Z"/>
  <path d="M401.75,227.65c-.11,1.94.77,7.07-.69,8.22-1.54.83-7.4.94-8.3-.6-1.66-8.92,1.09-9.62,9-7.62Z"/>
  <path d="M389.66,424.81c-1.94-.11-7.06.77-8.22-.69-.72-1.56-1.02-7.06.27-8.08,1.56-.72,7.06-1.02,8.07.27.87,1.18.68,7.99-.13,8.5Z"/>
  <path d="M101.51,226.78c1.33-.05,4.35.1,4.95,1.34.64,1.32.7,7.23-.82,7.98-.93.45-5.18.47-6.31.26-2.57-.48-2.53-6.52-1.67-8.24.57-1.15,2.66-1.29,3.85-1.33Z"/>
  <path d="M307.18,259.32c-.95.95-6.82,1.05-7.89.19-1.8-2.38-.53-5.47-.69-8.23,7.96-2.28,11.22-.58,8.59,8.04Z"/>
  <path d="M46.04,226.7c2.61.36,2.25,7.07,1.4,8.89-1.02,1.29-6.52,1-8.07.27-1.29-1.02-1-6.52-.27-8.08.59-.75,5.94-1.23,6.95-1.09Z"/>
  <path d="M247.88,298c.82.51,1,7.32.13,8.5-1.02,1.29-6.52,1-8.07.27-1.29-1.02-1-6.52-.27-8.08,1.15-1.47,6.27-.59,8.22-.69Z"/>
  <path d="M193.37,392c1.22-.41,6.57-.35,7.38.68.83,1.55.93,8.02-.57,8.86-2-.7-6.58.45-7.78-1.06-.85-1.75-1.04-7.81.97-8.48Z"/>
  <path d="M15.59,274.36c1.94.11,7.06-.77,8.22.69.72,1.56,1.02,7.06-.27,8.08-1.56.72-7.06,1.02-8.07-.27-.87-1.18-.68-7.99.13-8.5Z"/>
  <path d="M428.83,424.81c-.82-.51-1-7.32-.13-8.5,1.02-1.29,6.52-1,8.07-.27,1.29,1.02,1,6.52.27,8.08-1.15,1.47-6.27.59-8.22.69Z"/>
  <path d="M146.11,392c1.22-.41,6.57-.35,7.38.68.83,1.55.93,8.02-.57,8.86-2-.7-6.58.45-7.78-1.06-.85-1.75-1.04-7.81.97-8.48Z"/>
  <path d="M3.55,259.32c-1-1-1.14-7.2.09-8.17,8.14-2.29,10.8.94,7.8,8.36-1.08.87-6.94.76-7.89-.19Z"/>
  <path d="M425.38,129.1c-.51.82-7.31,1-8.49.13-1.35-1.06-.82-6.01-.5-7.75.93-1.58,6.8-1.39,8.28-.57,1.97,1.09.35,5.99.71,8.19Z"/>
  <path d="M274.96,428.27c.51-.82,7.31-1,8.49-.13,1.29,1.02,1,6.52.27,8.08-1.02,1.29-6.52,1-8.07.27-1.47-1.15-.59-6.28-.69-8.22Z"/>
  <path d="M4.36,132.59c1.8-.53,6.78-.52,7.91,1.25,1.23,7.81-1.8,10.05-9.13,6.89-.28-1.98-1.15-7.44,1.22-8.14Z"/>
  <path d="M298.59,428.27c.51-.82,7.31-1,8.49-.13,1.29,1.02,1,6.52.27,8.08-1.02,1.29-6.52,1-8.07.27-1.47-1.15-.59-6.28-.69-8.22Z"/>
  <path d="M425.38,318.18c-.51.82-7.31,1-8.49.13-1.29-1.02-1-6.52-.27-8.08,1.02-1.29,6.52-1,8.07-.27,1.47,1.15.59,6.28.69,8.22Z"/>
  <path d="M271.51,298c.82.51,1,7.32.13,8.5-1.02,1.29-6.52,1-8.07.27-1.29-1.02-1-6.52-.27-8.08,1.15-1.47,6.27-.59,8.22-.69Z"/>
  <path d="M418.16,191.41c7.37-1.6,7.4.89,7.71,7.23-.61,2.76-8.22,2.54-9.26,1.22-.64-2.51-1.69-7.75,1.55-8.45Z"/>
  <path d="M252.74,285.94c1.33-.39,6.52-.41,7.36.66.72,1.56,1.02,7.06-.27,8.08-2.11.75-7.32,1.23-8.62-.86-.49-.79-.32-7.33,1.54-7.88Z"/>
  <path d="M357.94,298c1.94.11,7.06-.77,8.22.69.72,1.56,1.02,7.06-.27,8.08-1.56.72-7.06,1.02-8.07-.27-.87-1.18-.68-7.99.13-8.5Z"/>
  <path d="M227.13,104.94l1.27-7.69c1.07-.84,7.15-.9,8.07.27.72,1.56,1.02,7.06-.27,8.08-2.81.94-6.47.92-9.07-.66Z"/>
  <path d="M298.6,62.21c.5-.82,7.31-1.01,8.49-.14,1.35,1.06.82,6.01.5,7.75-7.98,3.44-10.43.3-8.99-7.62Z"/>
  <path d="M276.37,85.32c1.34-.39,6.5-.42,7.36.66.64,4.07,2.25,8.12-3.05,8.6-7.22.65-5.32-1.6-6.21-7.38.11-.59,1.31-1.7,1.91-1.88Z"/>
  <path d="M418.16,262.32c8.02-1.74,7.7,1.71,7.33,8.39-1.3,1.18-7.87,1.34-8.88.06-.64-2.51-1.69-7.75,1.55-8.45Z"/>
  <path d="M4.36,179.86c1.48-.44,6.23-.41,7.34.68,1.26,1.25.84,7.19-.25,8.05-1.16.91-7.44.87-8.3-.6-.28-1.98-1.15-7.44,1.22-8.14Z"/>
  <path d="M274.96,381c.51-.82,7.31-1,8.49-.13,1.29,1.02,1,6.52.27,8.08-1.02,1.29-6.52,1-8.07.27-1.47-1.15-.59-6.28-.69-8.22Z"/>
  <path d="M87.19,297.56c1.97.95,6.24-.47,7.51,1.14.83,1.54.94,7.4-.6,8.3-1.74.32-6.69.85-7.75-.5-.87-1.41-.95-8.66.84-8.94Z"/>
  <path d="M425.38,428.27c-.11,1.94.77,7.07-.69,8.22-1.56.72-7.06,1.02-8.07-.27-.72-1.56-1.02-7.06.27-8.08,1.18-.87,7.98-.68,8.49.13Z"/>
  <path d="M27.99,167.77c1.36-.4,6.45-.42,7.35.67,1.09,1.32.89,7.15-.26,8.07-1.06.84-7.15.9-8.07-.27-.7-1.81-1.34-7.78.99-8.46Z"/>
  <path d="M428.83,274.36c1.94.11,7.06-.77,8.22.69.72,1.56,1.02,7.06-.27,8.08-1.56.72-7.06,1.02-8.07-.27-.87-1.18-.68-7.99.13-8.5Z"/>
  <path d="M425.38,156.74c1.44,8.15-.85,10.95-9,7.62-.32-1.74-.85-6.69.5-7.75,1.18-.87,7.98-.69,8.49.13Z"/>
  <path d="M224.2,298.04c1.09,1.17.95,6.88.19,8.46-1.06,1.35-6.01.82-7.75.5-1.47-.87-1.51-7.14-.6-8.3.75-.95,7.57-1.29,8.16-.65Z"/>
  <path d="M110.11,274.36c2.13.25,6.8-1.15,8.22.7.84,1.54.93,7.4-.6,8.3-1.74.32-6.69.85-7.75-.5-.87-1.18-.68-7.99.13-8.5Z"/>
  <path d="M129.73,274.36c.82.51,1,7.31.13,8.5-1.06,1.35-6.01.82-7.75.5-1.58-.93-1.39-6.8-.57-8.28,1.09-1.97,5.98-.35,8.19-.71Z"/>
  <path d="M298.59,38.57c.51-.82,7.31-1,8.49-.13,1.35,1.06.82,6.01.5,7.75-.93,1.58-6.8,1.39-8.28.57-1.97-1.09-.35-5.99-.71-8.19Z"/>
  <path d="M300,144.13c1.42-.41,6.78-.39,7.59.98.32,1.74.85,6.69-.5,7.75-1.55.83-8.02.93-8.86-.57.77-2.17-.78-7.41,1.77-8.16Z"/>
  <path d="M393.16,416.23c7.05-1.8,9.31-1.46,8.93,6.2-.19,3.88-6.52,2.76-9.11,1.69-.83-1.06-.8-6.9.18-7.89Z"/>
  <path d="M75.25,144.13c1.33-.39,6.52-.41,7.36.66.72,1.56,1.02,7.06-.27,8.08-1.56.72-7.06,1.02-8.07-.27-.7-1.81-1.34-7.78.99-8.46Z"/>
  <path d="M98.88,144.13c1.33-.39,6.52-.41,7.36.66.72,1.56,1.02,7.06-.27,8.08-1.56.72-7.06,1.02-8.07-.27-.7-1.81-1.34-7.78.99-8.46Z"/>
  <path d="M134.59,144.13c1.33-.39,6.52-.41,7.36.66.72,1.56,1.02,7.06-.27,8.08-1.56.72-7.06,1.02-8.07-.27-.7-1.81-1.34-7.78.99-8.46Z"/>
  <path d="M169.76,144.13c1.33-.39,6.52-.41,7.36.66.72,1.56,1.02,7.06-.27,8.08-1.56.72-7.06,1.02-8.07-.27-.7-1.81-1.34-7.78.99-8.46Z"/>
  <path d="M181.85,144.13c1.33-.39,6.52-.41,7.36.66.72,1.56,1.02,7.06-.27,8.08-1.56.72-7.06,1.02-8.07-.27-.7-1.81-1.34-7.78.99-8.46Z"/>
  <path d="M63.71,144.13c1.33-.39,6.52-.41,7.36.66.72,1.56,1.02,7.06-.27,8.08-1.56.72-7.06,1.02-8.07-.27-.7-1.81-1.34-7.78.99-8.46Z"/>
  <path d="M240.65,144.13c1.33-.39,6.52-.41,7.36.66.72,1.56,1.02,7.06-.27,8.08-1.56.72-7.06,1.02-8.07-.27-.7-1.81-1.34-7.78.99-8.46Z"/>
  <path d="M264.28,144.13c1.33-.39,6.52-.41,7.36.66.72,1.56,1.02,7.06-.27,8.08-1.56.72-7.06,1.02-8.07-.27-.7-1.81-1.34-7.78.99-8.46Z"/>
  <path d="M51.62,144.13c1.33-.39,6.52-.41,7.36.66.72,1.56,1.02,7.06-.27,8.08-1.56.72-7.06,1.02-8.07-.27-.7-1.81-1.34-7.78.99-8.46Z"/>
  <path d="M311.54,144.13c1.33-.39,6.52-.41,7.36.66.72,1.56,1.02,7.06-.27,8.08-1.56.72-7.06,1.02-8.07-.27-.7-1.81-1.34-7.78.99-8.46Z"/>
  <path d="M358.8,144.13c1.33-.39,6.52-.41,7.36.66.72,1.56,1.02,7.06-.27,8.08-1.56.72-7.06,1.02-8.07-.27-.7-1.81-1.34-7.78.99-8.46Z"/>
  <path d="M40.08,144.13c1.33-.39,6.52-.41,7.36.66.72,1.56,1.02,7.06-.27,8.08-1.56.72-7.06,1.02-8.07-.27-.7-1.81-1.34-7.78.99-8.46Z"/>
  <path d="M382.43,144.13c1.33-.39,6.52-.41,7.36.66.72,1.56,1.02,7.06-.27,8.08-1.56.72-7.06,1.02-8.07-.27-.7-1.81-1.34-7.78.99-8.46Z"/>
  <path d="M406.05,144.13c1.33-.39,6.52-.41,7.36.66.72,1.56,1.02,7.06-.27,8.08-1.56.72-7.06,1.02-8.07-.27-.7-1.81-1.34-7.78.99-8.46Z"/>
  <path d="M16.45,144.13c1.33-.39,6.52-.41,7.36.66.72,1.56,1.02,7.06-.27,8.08-1.56.72-7.06,1.02-8.07-.27-.7-1.81-1.34-7.78.99-8.46Z"/>
  <path d="M429.68,144.13c1.33-.39,6.52-.41,7.36.66.72,1.56,1.02,7.06-.27,8.08-1.56.72-7.06,1.02-8.07-.27-.7-1.81-1.34-7.78.99-8.46Z"/>
  <path d="M16.45,156.22c1.33-.39,6.52-.41,7.36.66.72,1.56,1.02,7.06-.27,8.08-1.56.72-7.06,1.02-8.07-.27-.7-1.81-1.34-7.78.99-8.46Z"/>
  <path d="M40.08,156.22c1.33-.39,6.52-.41,7.36.66.72,1.56,1.02,7.06-.27,8.08-1.56.72-7.06,1.02-8.07-.27-.7-1.81-1.34-7.78.99-8.46Z"/>
  <path d="M51.62,156.22c1.33-.39,6.52-.41,7.36.66.72,1.56,1.02,7.06-.27,8.08-1.56.72-7.06,1.02-8.07-.27-.7-1.81-1.34-7.78.99-8.46Z"/>
  <path d="M134.59,156.22c1.33-.39,6.52-.41,7.36.66.72,1.56,1.02,7.06-.27,8.08-1.56.72-7.06,1.02-8.07-.27-.7-1.81-1.34-7.78.99-8.46Z"/>
  <path d="M287.91,156.22c1.33-.39,6.52-.41,7.36.66.72,1.56,1.02,7.06-.27,8.08-1.56.72-7.06,1.02-8.07-.27-.7-1.81-1.34-7.78.99-8.46Z"/>
  <path d="M335.17,156.22c1.33-.39,6.52-.41,7.36.66.72,1.56,1.02,7.06-.27,8.08-1.56.72-7.06,1.02-8.07-.27-.7-1.81-1.34-7.78.99-8.46Z"/>
  <path d="M429.68,132.59c1.33-.39,6.52-.41,7.36.66.72,1.56,1.02,7.06-.27,8.08-1.56.72-7.06,1.02-8.07-.27-.7-1.81-1.34-7.78.99-8.46Z"/>
  <path d="M382.43,132.59c1.33-.39,6.52-.41,7.36.66.72,1.56,1.02,7.06-.27,8.08-1.56.72-7.06,1.02-8.07-.27-.7-1.81-1.34-7.78.99-8.46Z"/>
  <path d="M429.68,427.75c1.33-.39,6.52-.41,7.36.66.72,1.56,1.02,7.06-.27,8.08-1.56.72-7.06,1.02-8.07-.27-.7-1.81-1.34-7.78.99-8.46Z"/>
  <path d="M358.8,132.59c1.33-.39,6.52-.41,7.36.66.72,1.56,1.02,7.06-.27,8.08-1.56.72-7.06,1.02-8.07-.27-.7-1.81-1.34-7.78.99-8.46Z"/>
  <path d="M63.71,167.77c1.33-.39,6.52-.41,7.36.66.72,1.56,1.02,7.06-.27,8.08-1.56.72-7.06,1.02-8.07-.27-.7-1.81-1.34-7.78.99-8.46Z"/>
  <path d="M75.25,167.77c1.33-.39,6.52-.41,7.36.66.72,1.56,1.02,7.06-.27,8.08-1.56.72-7.06,1.02-8.07-.27-.7-1.81-1.34-7.78.99-8.46Z"/>
  <path d="M87.34,167.77c1.33-.39,6.52-.41,7.36.66.72,1.56,1.02,7.06-.27,8.08-1.56.72-7.06,1.02-8.07-.27-.7-1.81-1.34-7.78.99-8.46Z"/>
  <path d="M110.96,167.77c1.33-.39,6.52-.41,7.36.66.72,1.56,1.02,7.06-.27,8.08-1.56.72-7.06,1.02-8.07-.27-.7-1.81-1.34-7.78.99-8.46Z"/>
  <path d="M134.59,167.77c1.33-.39,6.52-.41,7.36.66.72,1.56,1.02,7.06-.27,8.08-1.56.72-7.06,1.02-8.07-.27-.7-1.81-1.34-7.78.99-8.46Z"/>
  <path d="M335.17,132.59c1.33-.39,6.52-.41,7.36.66.72,1.56,1.02,7.06-.27,8.08-1.56.72-7.06,1.02-8.07-.27-.7-1.81-1.34-7.78.99-8.46Z"/>
  <path d="M358.8,167.77c1.33-.39,6.52-.41,7.36.66.72,1.56,1.02,7.06-.27,8.08-1.56.72-7.06,1.02-8.07-.27-.7-1.81-1.34-7.78.99-8.46Z"/>
  <path d="M287.91,132.59c1.33-.39,6.52-.41,7.36.66.72,1.56,1.02,7.06-.27,8.08-1.56.72-7.06,1.02-8.07-.27-.7-1.81-1.34-7.78.99-8.46Z"/>
  <path d="M382.43,167.77c1.33-.39,6.52-.41,7.36.66.72,1.56,1.02,7.06-.27,8.08-1.56.72-7.06,1.02-8.07-.27-.7-1.81-1.34-7.78.99-8.46Z"/>
  <path d="M394.53,167.78c6.77-1.47,8.49.94,7.28,7.28-.56,2.93-6.74,2.35-8.83,1.17-.64-2.51-1.69-7.75,1.55-8.45Z"/>
  <path d="M429.68,167.77c1.33-.39,6.52-.41,7.36.66.72,1.56,1.02,7.06-.27,8.08-1.56.72-7.06,1.02-8.07-.27-.7-1.81-1.34-7.78.99-8.46Z"/>
  <path d="M401.75,428.27c-.11,1.94.77,7.07-.69,8.22-1.54.83-7.4.94-8.3-.6-.32-1.74-.85-6.69.5-7.75,1.18-.87,7.98-.68,8.49.13Z"/>
  <path d="M40.08,179.86c1.33-.39,6.52-.41,7.36.66.72,1.56,1.02,7.06-.27,8.08-1.56.72-7.06,1.02-8.07-.27-.7-1.81-1.34-7.78.99-8.46Z"/>
  <path d="M122.5,179.86c1.33-.39,6.52-.41,7.36.66.72,1.56,1.02,7.06-.27,8.08-1.56.72-7.06,1.02-8.07-.27-.7-1.81-1.34-7.78.99-8.46Z"/>
  <path d="M287.91,179.86c1.33-.39,6.52-.41,7.36.66.72,1.56,1.02,7.06-.27,8.08-1.56.72-7.06,1.02-8.07-.27-.7-1.81-1.34-7.78.99-8.46Z"/>
  <path d="M311.54,179.86c1.33-.39,6.52-.41,7.36.66.72,1.56,1.02,7.06-.27,8.08-1.56.72-7.06,1.02-8.07-.27-.7-1.81-1.34-7.78.99-8.46Z"/>
  <path d="M240.65,132.59c1.33-.39,6.52-.41,7.36.66.72,1.56,1.02,7.06-.27,8.08-1.56.72-7.06,1.02-8.07-.27-.7-1.81-1.34-7.78.99-8.46Z"/>
  <path d="M181.85,132.59c1.33-.39,6.52-.41,7.36.66.72,1.56,1.02,7.06-.27,8.08-1.56.72-7.06,1.02-8.07-.27-.7-1.81-1.34-7.78.99-8.46Z"/>
  <path d="M358.8,179.86c1.33-.39,6.52-.41,7.36.66.72,1.56,1.02,7.06-.27,8.08-1.56.72-7.06,1.02-8.07-.27-.7-1.81-1.34-7.78.99-8.46Z"/>
  <path d="M169.76,132.59c1.33-.39,6.52-.41,7.36.66.72,1.56,1.02,7.06-.27,8.08-1.56.72-7.06,1.02-8.07-.27-.7-1.81-1.34-7.78.99-8.46Z"/>
  <path d="M382.43,179.86c1.33-.39,6.52-.41,7.36.66.72,1.56,1.02,7.06-.27,8.08-1.56.72-7.06,1.02-8.07-.27-.7-1.81-1.34-7.78.99-8.46Z"/>
  <path d="M146.13,132.59c1.33-.39,6.52-.41,7.36.66.72,1.56,1.02,7.06-.27,8.08-1.56.72-7.06,1.02-8.07-.27-.7-1.81-1.34-7.78.99-8.46Z"/>
  <path d="M134.59,132.59c1.33-.39,6.52-.41,7.36.66.72,1.56,1.02,7.06-.27,8.08-1.56.72-7.06,1.02-8.07-.27-.7-1.81-1.34-7.78.99-8.46Z"/>
  <path d="M16.45,191.4c1.33-.39,6.52-.41,7.36.66.72,1.56,1.02,7.06-.27,8.08-1.56.72-7.06,1.02-8.07-.27-.7-1.81-1.34-7.78.99-8.46Z"/>
  <path d="M40.08,191.4c1.33-.39,6.52-.41,7.36.66.72,1.56,1.02,7.06-.27,8.08-1.56.72-7.06,1.02-8.07-.27-.7-1.81-1.34-7.78.99-8.46Z"/>
  <path d="M63.71,191.4c1.33-.39,6.52-.41,7.36.66.72,1.56,1.02,7.06-.27,8.08-1.56.72-7.06,1.02-8.07-.27-.7-1.81-1.34-7.78.99-8.46Z"/>
  <path d="M75.25,191.4c1.33-.39,6.52-.41,7.36.66.72,1.56,1.02,7.06-.27,8.08-1.56.72-7.06,1.02-8.07-.27-.7-1.81-1.34-7.78.99-8.46Z"/>
  <path d="M98.88,191.4c1.33-.39,6.52-.41,7.36.66.72,1.56,1.02,7.06-.27,8.08-1.56.72-7.06,1.02-8.07-.27-.7-1.81-1.34-7.78.99-8.46Z"/>
  <path d="M110.96,191.4c1.33-.39,6.52-.41,7.36.66.72,1.56,1.02,7.06-.27,8.08-1.56.72-7.06,1.02-8.07-.27-.7-1.81-1.34-7.78.99-8.46Z"/>
  <path d="M122.5,191.4c1.33-.39,6.52-.41,7.36.66.72,1.56,1.02,7.06-.27,8.08-1.56.72-7.06,1.02-8.07-.27-.7-1.81-1.34-7.78.99-8.46Z"/>
  <path d="M134.59,191.4c1.33-.39,6.52-.41,7.36.66.72,1.56,1.02,7.06-.27,8.08-1.56.72-7.06,1.02-8.07-.27-.7-1.81-1.34-7.78.99-8.46Z"/>
  <path d="M287.91,191.4c1.33-.39,6.52-.41,7.36.66.72,1.56,1.02,7.06-.27,8.08-1.56.72-7.06,1.02-8.07-.27-.7-1.81-1.34-7.78.99-8.46Z"/>
  <path d="M335.17,191.4c1.33-.39,6.52-.41,7.36.66.72,1.56,1.02,7.06-.27,8.08-1.56.72-7.06,1.02-8.07-.27-.7-1.81-1.34-7.78.99-8.46Z"/>
  <path d="M358.8,191.4c1.33-.39,6.52-.41,7.36.66.72,1.56,1.02,7.06-.27,8.08-1.56.72-7.06,1.02-8.07-.27-.7-1.81-1.34-7.78.99-8.46Z"/>
  <path d="M122.5,132.59c1.33-.39,6.52-.41,7.36.66.72,1.56,1.02,7.06-.27,8.08-1.56.72-7.06,1.02-8.07-.27-.7-1.81-1.34-7.78.99-8.46Z"/>
  <path d="M406.05,191.4c1.33-.39,6.52-.41,7.36.66.72,1.56,1.02,7.06-.27,8.08-1.56.72-7.06,1.02-8.07-.27-.7-1.81-1.34-7.78.99-8.46Z"/>
  <path d="M110.96,132.59c1.33-.39,6.52-.41,7.36.66.72,1.56,1.02,7.06-.27,8.08-1.56.72-7.06,1.02-8.07-.27-.7-1.81-1.34-7.78.99-8.46Z"/>
  <path d="M429.68,191.4c1.33-.39,6.52-.41,7.36.66.72,1.56,1.02,7.06-.27,8.08-1.56.72-7.06,1.02-8.07-.27-.7-1.81-1.34-7.78.99-8.46Z"/>
  <path d="M382.43,427.75c1.33-.39,6.52-.41,7.36.66.72,1.56,1.02,7.06-.27,8.08-1.56.72-7.06,1.02-8.07-.27-.7-1.81-1.34-7.78.99-8.46Z"/>
  <path d="M358.8,427.75c1.33-.39,6.52-.41,7.36.66.72,1.56,1.02,7.06-.27,8.08-1.56.72-7.06,1.02-8.07-.27-.7-1.81-1.34-7.78.99-8.46Z"/>
  <path d="M98.88,132.59c1.33-.39,6.52-.41,7.36.66.72,1.56,1.02,7.06-.27,8.08-1.56.72-7.06,1.02-8.07-.27-.7-1.81-1.34-7.78.99-8.46Z"/>
  <path d="M40.08,203.49c1.33-.39,6.52-.41,7.36.66.72,1.56,1.02,7.06-.27,8.08-1.56.72-7.06,1.02-8.07-.27-.7-1.81-1.34-7.78.99-8.46Z"/>
  <path d="M51.62,203.49c1.33-.39,6.52-.41,7.36.66.72,1.56,1.02,7.06-.27,8.08-1.56.72-7.06,1.02-8.07-.27-.7-1.81-1.34-7.78.99-8.46Z"/>
  <path d="M87.34,203.49c1.33-.39,6.52-.41,7.36.66.72,1.56,1.02,7.06-.27,8.08-1.56.72-7.06,1.02-8.07-.27-.7-1.81-1.34-7.78.99-8.46Z"/>
  <path d="M98.88,203.49c1.33-.39,6.52-.41,7.36.66.72,1.56,1.02,7.06-.27,8.08-1.56.72-7.06,1.02-8.07-.27-.7-1.81-1.34-7.78.99-8.46Z"/>
  <path d="M110.96,203.49c1.33-.39,6.52-.41,7.36.66.72,1.56,1.02,7.06-.27,8.08-1.56.72-7.06,1.02-8.07-.27-.7-1.81-1.34-7.78.99-8.46Z"/>
  <path d="M122.5,203.49c1.33-.39,6.52-.41,7.36.66.72,1.56,1.02,7.06-.27,8.08-1.56.72-7.06,1.02-8.07-.27-.7-1.81-1.34-7.78.99-8.46Z"/>
  <path d="M134.59,203.49c1.33-.39,6.52-.41,7.36.66.72,1.56,1.02,7.06-.27,8.08-1.56.72-7.06,1.02-8.07-.27-.7-1.81-1.34-7.78.99-8.46Z"/>
  <path d="M146.13,203.49c1.33-.39,6.52-.41,7.36.66.72,1.56,1.02,7.06-.27,8.08-1.56.72-7.06,1.02-8.07-.27-.7-1.81-1.34-7.78.99-8.46Z"/>
  <path d="M311.54,203.49c1.33-.39,6.52-.41,7.36.66.72,1.56,1.02,7.06-.27,8.08-1.56.72-7.06,1.02-8.07-.27-.7-1.81-1.34-7.78.99-8.46Z"/>
  <path d="M87.34,132.59c1.33-.39,6.52-.41,7.36.66.72,1.56,1.02,7.06-.27,8.08-1.56.72-7.06,1.02-8.07-.27-.7-1.81-1.34-7.78.99-8.46Z"/>
  <path d="M51.62,132.59c1.33-.39,6.52-.41,7.36.66.72,1.56,1.02,7.06-.27,8.08-1.56.72-7.06,1.02-8.07-.27-.7-1.81-1.34-7.78.99-8.46Z"/>
  <path d="M358.8,203.49c1.33-.39,6.52-.41,7.36.66.72,1.56,1.02,7.06-.27,8.08-1.56.72-7.06,1.02-8.07-.27-.7-1.81-1.34-7.78.99-8.46Z"/>
  <path d="M401.75,204.01c-.11,1.94.77,7.07-.69,8.22-1.54.83-7.4.94-8.3-.6-.32-1.74-.85-6.69.5-7.75,1.18-.87,7.98-.68,8.49.13Z"/>
  <path d="M425.38,204.01c-.11,1.94.77,7.07-.69,8.22-1.54.83-7.4.94-8.3-.6-.32-1.74-.85-6.69.5-7.75,1.18-.87,7.98-.68,8.49.13Z"/>
  <path d="M429.68,120.5c1.33-.39,6.52-.41,7.36.66.72,1.56,1.02,7.06-.27,8.08-1.56.72-7.06,1.02-8.07-.27-.7-1.81-1.34-7.78.99-8.46Z"/>
  <path d="M16.45,215.04c1.33-.39,6.52-.41,7.36.66.72,1.56,1.02,7.06-.27,8.08-1.56.72-7.06,1.02-8.07-.27-.7-1.81-1.34-7.78.99-8.46Z"/>
  <path d="M63.71,215.04c1.33-.39,6.52-.41,7.36.66.72,1.56,1.02,7.06-.27,8.08-1.56.72-7.06,1.02-8.07-.27-.7-1.81-1.34-7.78.99-8.46Z"/>
  <path d="M75.25,215.04c1.33-.39,6.52-.41,7.36.66.72,1.56,1.02,7.06-.27,8.08-1.56.72-7.06,1.02-8.07-.27-.7-1.81-1.34-7.78.99-8.46Z"/>
  <path d="M87.34,215.04c1.33-.39,6.52-.41,7.36.66.72,1.56,1.02,7.06-.27,8.08-1.56.72-7.06,1.02-8.07-.27-.7-1.81-1.34-7.78.99-8.46Z"/>
  <path d="M98.88,215.04c1.33-.39,6.52-.41,7.36.66.72,1.56,1.02,7.06-.27,8.08-1.56.72-7.06,1.02-8.07-.27-.7-1.81-1.34-7.78.99-8.46Z"/>
  <path d="M122.5,215.04c1.33-.39,6.52-.41,7.36.66.72,1.56,1.02,7.06-.27,8.08-1.56.72-7.06,1.02-8.07-.27-.7-1.81-1.34-7.78.99-8.46Z"/>
  <path d="M134.59,215.04c1.33-.39,6.52-.41,7.36.66.72,1.56,1.02,7.06-.27,8.08-1.56.72-7.06,1.02-8.07-.27-.7-1.81-1.34-7.78.99-8.46Z"/>
  <path d="M146.13,215.04c1.33-.39,6.52-.41,7.36.66.72,1.56,1.02,7.06-.27,8.08-1.56.72-7.06,1.02-8.07-.27-.7-1.81-1.34-7.78.99-8.46Z"/>
  <path d="M287.91,215.04c1.33-.39,6.52-.41,7.36.66.72,1.56,1.02,7.06-.27,8.08-1.56.72-7.06,1.02-8.07-.27-.7-1.81-1.34-7.78.99-8.46Z"/>
  <path d="M406.05,120.5c1.33-.39,6.52-.41,7.36.66.72,1.56,1.02,7.06-.27,8.08-1.56.72-7.06,1.02-8.07-.27-.7-1.81-1.34-7.78.99-8.46Z"/>
  <path d="M382.43,120.5c1.33-.39,6.52-.41,7.36.66.72,1.56,1.02,7.06-.27,8.08-1.56.72-7.06,1.02-8.07-.27-.7-1.81-1.34-7.78.99-8.46Z"/>
  <path d="M335.17,215.04c1.33-.39,6.52-.41,7.36.66.72,1.56,1.02,7.06-.27,8.08-1.56.72-7.06,1.02-8.07-.27-.7-1.81-1.34-7.78.99-8.46Z"/>
  <path d="M358.8,120.5c1.33-.39,6.52-.41,7.36.66.72,1.56,1.02,7.06-.27,8.08-1.56.72-7.06,1.02-8.07-.27-.7-1.81-1.34-7.78.99-8.46Z"/>
  <path d="M311.54,120.5c1.33-.39,6.52-.41,7.36.66.72,1.56,1.02,7.06-.27,8.08-1.56.72-7.06,1.02-8.07-.27-.7-1.81-1.34-7.78.99-8.46Z"/>
  <path d="M406.05,215.04c1.33-.39,6.52-.41,7.36.66.72,1.56,1.02,7.06-.27,8.08-1.56.72-7.06,1.02-8.07-.27-.7-1.81-1.34-7.78.99-8.46Z"/>
  <path d="M298.59,129.1c.11-1.94-.77-7.07.69-8.22,1.54-.83,7.4-.94,8.3.6.32,1.74.85,6.69-.5,7.75-1.18.87-7.98.68-8.49-.13Z"/>
  <path d="M429.68,215.04c1.33-.39,6.52-.41,7.36.66.72,1.56,1.02,7.06-.27,8.08-1.56.72-7.06,1.02-8.07-.27-.7-1.81-1.34-7.78.99-8.46Z"/>
  <path d="M287.91,427.75c1.33-.39,6.52-.41,7.36.66.72,1.56,1.02,7.06-.27,8.08-1.56.72-7.06,1.02-8.07-.27-.7-1.81-1.34-7.78.99-8.46Z"/>
  <path d="M264.28,427.75c1.33-.39,6.52-.41,7.36.66.72,1.56,1.02,7.06-.27,8.08-1.56.72-7.06,1.02-8.07-.27-.7-1.81-1.34-7.78.99-8.46Z"/>
  <path d="M240.65,427.75c1.33-.39,6.52-.41,7.36.66.72,1.56,1.02,7.06-.27,8.08-1.56.72-7.06,1.02-8.07-.27-.7-1.81-1.34-7.78.99-8.46Z"/>
  <path d="M229.11,120.5c1.33-.39,6.52-.41,7.36.66.72,1.56,1.02,7.06-.27,8.08-1.56.72-7.06,1.02-8.07-.27-.7-1.81-1.34-7.78.99-8.46Z"/>
  <path d="M217.02,120.5c1.33-.39,6.52-.41,7.36.66.72,1.56,1.02,7.06-.27,8.08-1.56.72-7.06,1.02-8.07-.27-.7-1.81-1.34-7.78.99-8.46Z"/>
  <path d="M193.39,120.5c1.33-.39,6.52-.41,7.36.66.72,1.56,1.02,7.06-.27,8.08-1.56.72-7.06,1.02-8.07-.27-.7-1.81-1.34-7.78.99-8.46Z"/>
  <path d="M181.85,120.5c1.33-.39,6.52-.41,7.36.66.72,1.56,1.02,7.06-.27,8.08-1.56.72-7.06,1.02-8.07-.27-.7-1.81-1.34-7.78.99-8.46Z"/>
  <path d="M169.76,120.5c1.33-.39,6.52-.41,7.36.66.72,1.56,1.02,7.06-.27,8.08-1.56.72-7.06,1.02-8.07-.27-.7-1.81-1.34-7.78.99-8.46Z"/>
  <path d="M146.13,427.75c1.33-.39,6.52-.41,7.36.66.72,1.56,1.02,7.06-.27,8.08-1.56.72-7.06,1.02-8.07-.27-.7-1.81-1.34-7.78.99-8.46Z"/>
  <path d="M87.34,227.13c1.33-.39,6.52-.41,7.36.66.72,1.56,1.02,7.06-.27,8.08-1.56.72-7.06,1.02-8.07-.27-.7-1.81-1.34-7.78.99-8.46Z"/>
  <path d="M311.54,227.13c1.33-.39,6.52-.41,7.36.66.72,1.56,1.02,7.06-.27,8.08-1.56.72-7.06,1.02-8.07-.27-.7-1.81-1.34-7.78.99-8.46Z"/>
  <path d="M110.96,427.75c1.33-.39,6.52-.41,7.36.66.72,1.56,1.02,7.06-.27,8.08-1.56.72-7.06,1.02-8.07-.27-.7-1.81-1.34-7.78.99-8.46Z"/>
  <path d="M16.45,238.67c1.33-.39,6.52-.41,7.36.66.72,1.56,1.02,7.06-.27,8.08-1.56.72-7.06,1.02-8.07-.27-.7-1.81-1.34-7.78.99-8.46Z"/>
  <path d="M63.71,238.67c1.33-.39,6.52-.41,7.36.66.72,1.56,1.02,7.06-.27,8.08-1.56.72-7.06,1.02-8.07-.27-.7-1.81-1.34-7.78.99-8.46Z"/>
  <path d="M75.25,238.67c1.33-.39,6.52-.41,7.36.66.72,1.56,1.02,7.06-.27,8.08-1.56.72-7.06,1.02-8.07-.27-.7-1.81-1.34-7.78.99-8.46Z"/>
  <path d="M98.88,238.67c1.33-.39,6.52-.41,7.36.66.72,1.56,1.02,7.06-.27,8.08-1.56.72-7.06,1.02-8.07-.27-.7-1.81-1.34-7.78.99-8.46Z"/>
  <path d="M110.96,238.67c1.33-.39,6.52-.41,7.36.66.72,1.56,1.02,7.06-.27,8.08-1.56.72-7.06,1.02-8.07-.27-.7-1.81-1.34-7.78.99-8.46Z"/>
  <path d="M134.59,238.67c1.33-.39,6.52-.41,7.36.66.72,1.56,1.02,7.06-.27,8.08-1.56.72-7.06,1.02-8.07-.27-.7-1.81-1.34-7.78.99-8.46Z"/>
  <path d="M146.13,238.67c1.33-.39,6.52-.41,7.36.66.72,1.56,1.02,7.06-.27,8.08-1.56.72-7.06,1.02-8.07-.27-.7-1.81-1.34-7.78.99-8.46Z"/>
  <path d="M287.91,238.67c1.33-.39,6.52-.41,7.36.66.72,1.56,1.02,7.06-.27,8.08-1.56.72-7.06,1.02-8.07-.27-.7-1.81-1.34-7.78.99-8.46Z"/>
  <path d="M122.5,120.5c1.33-.39,6.52-.41,7.36.66.72,1.56,1.02,7.06-.27,8.08-1.56.72-7.06,1.02-8.07-.27-.7-1.81-1.34-7.78.99-8.46Z"/>
  <path d="M311.54,238.67c1.33-.39,6.52-.41,7.36.66.72,1.56,1.02,7.06-.27,8.08-1.56.72-7.06,1.02-8.07-.27-.7-1.81-1.34-7.78.99-8.46Z"/>
  <path d="M98.88,120.5c1.33-.39,6.52-.41,7.36.66.72,1.56,1.02,7.06-.27,8.08-1.56.72-7.06,1.02-8.07-.27-.7-1.81-1.34-7.78.99-8.46Z"/>
  <path d="M87.34,120.5c1.33-.39,6.52-.41,7.36.66.72,1.56,1.02,7.06-.27,8.08-1.56.72-7.06,1.02-8.07-.27-.7-1.81-1.34-7.78.99-8.46Z"/>
  <path d="M358.8,238.67c1.33-.39,6.52-.41,7.36.66.72,1.56,1.02,7.06-.27,8.08-1.56.72-7.06,1.02-8.07-.27-.7-1.81-1.34-7.78.99-8.46Z"/>
  <path d="M382.43,238.67c1.33-.39,6.52-.41,7.36.66.72,1.56,1.02,7.06-.27,8.08-1.56.72-7.06,1.02-8.07-.27-.7-1.81-1.34-7.78.99-8.46Z"/>
  <path d="M406.05,238.67c1.33-.39,6.52-.41,7.36.66.72,1.56,1.02,7.06-.27,8.08-1.56.72-7.06,1.02-8.07-.27-.7-1.81-1.34-7.78.99-8.46Z"/>
  <path d="M75.25,120.5c1.33-.39,6.52-.41,7.36.66.72,1.56,1.02,7.06-.27,8.08-1.56.72-7.06,1.02-8.07-.27-.7-1.81-1.34-7.78.99-8.46Z"/>
  <path d="M51.62,120.5c1.33-.39,6.52-.41,7.36.66.72,1.56,1.02,7.06-.27,8.08-1.56.72-7.06,1.02-8.07-.27-.7-1.81-1.34-7.78.99-8.46Z"/>
  <path d="M406.05,108.95c1.33-.39,6.52-.41,7.36.66.72,1.56,1.02,7.06-.27,8.08-1.56.72-7.06,1.02-8.07-.27-.7-1.81-1.34-7.78.99-8.46Z"/>
  <path d="M382.43,108.95c1.33-.39,6.52-.41,7.36.66.72,1.56,1.02,7.06-.27,8.08-1.56.72-7.06,1.02-8.07-.27-.7-1.81-1.34-7.78.99-8.46Z"/>
  <path d="M98.88,427.75c1.33-.39,6.52-.41,7.36.66.72,1.56,1.02,7.06-.27,8.08-1.56.72-7.06,1.02-8.07-.27-.7-1.81-1.34-7.78.99-8.46Z"/>
  <path d="M358.8,415.66c1.33-.39,6.52-.41,7.36.66.72,1.56,1.02,7.06-.27,8.08-1.56.72-7.06,1.02-8.07-.27-.7-1.81-1.34-7.78.99-8.46Z"/>
  <path d="M311.54,415.66c1.33-.39,6.52-.41,7.36.66.72,1.56,1.02,7.06-.27,8.08-1.56.72-7.06,1.02-8.07-.27-.7-1.81-1.34-7.78.99-8.46Z"/>
  <path d="M358.8,108.95c1.33-.39,6.52-.41,7.36.66.72,1.56,1.02,7.06-.27,8.08-1.56.72-7.06,1.02-8.07-.27-.7-1.81-1.34-7.78.99-8.46Z"/>
  <path d="M401.75,251.28c-.17,2.76,1.1,5.85-.7,8.23-1.08.87-6.94.76-7.89-.19-.9-1.59-1.26-7.11.09-8.17,1.17-.87,8-.68,8.5.13Z"/>
  <path d="M335.17,108.95c1.33-.39,6.52-.41,7.36.66.72,1.56,1.02,7.06-.27,8.08-1.56.72-7.06,1.02-8.07-.27-.7-1.81-1.34-7.78.99-8.46Z"/>
  <path d="M4.36,262.31c1.33-.39,6.52-.41,7.36.66.72,1.56,1.02,7.06-.27,8.08-1.56.72-7.06,1.02-8.07-.27-.7-1.81-1.34-7.78.99-8.46Z"/>
  <path d="M40.08,262.31c1.33-.39,6.52-.41,7.36.66.72,1.56,1.02,7.06-.27,8.08-1.56.72-7.06,1.02-8.07-.27-.7-1.81-1.34-7.78.99-8.46Z"/>
  <path d="M75.25,262.31c1.33-.39,6.52-.41,7.36.66.72,1.56,1.02,7.06-.27,8.08-1.56.72-7.06,1.02-8.07-.27-.7-1.81-1.34-7.78.99-8.46Z"/>
  <path d="M87.34,262.31c1.33-.39,6.52-.41,7.36.66.72,1.56,1.02,7.06-.27,8.08-1.56.72-7.06,1.02-8.07-.27-.7-1.81-1.34-7.78.99-8.46Z"/>
  <path d="M122.5,262.31c1.33-.39,6.52-.41,7.36.66.72,1.56,1.02,7.06-.27,8.08-1.56.72-7.06,1.02-8.07-.27-.7-1.81-1.34-7.78.99-8.46Z"/>
  <path d="M146.13,262.31c1.33-.39,6.52-.41,7.36.66.72,1.56,1.02,7.06-.27,8.08-1.56.72-7.06,1.02-8.07-.27-.7-1.81-1.34-7.78.99-8.46Z"/>
  <path d="M298.59,270.91c.11-1.94-.77-7.07.69-8.22,1.54-.83,7.4-.94,8.3.6.32,1.74.85,6.69-.5,7.75-1.18.87-7.98.68-8.49-.13Z"/>
  <path d="M311.54,262.31c1.33-.39,6.52-.41,7.36.66.72,1.56,1.02,7.06-.27,8.08-1.56.72-7.06,1.02-8.07-.27-.7-1.81-1.34-7.78.99-8.46Z"/>
  <path d="M298.59,109.47c.51-.82,7.31-1,8.49-.13,1.35,1.06.82,6.01.5,7.75-.9,1.53-6.76,1.43-8.3.6-1.47-1.15-.59-6.28-.69-8.22Z"/>
  <path d="M335.17,262.31c1.33-.39,6.52-.41,7.36.66.72,1.56,1.02,7.06-.27,8.08-1.56.72-7.06,1.02-8.07-.27-.7-1.81-1.34-7.78.99-8.46Z"/>
  <path d="M287.91,108.95c1.33-.39,6.52-.41,7.36.66.72,1.56,1.02,7.06-.27,8.08-1.56.72-7.06,1.02-8.07-.27-.7-1.81-1.34-7.78.99-8.46Z"/>
  <path d="M264.28,108.95c1.33-.39,6.52-.41,7.36.66.72,1.56,1.02,7.06-.27,8.08-1.56.72-7.06,1.02-8.07-.27-.7-1.81-1.34-7.78.99-8.46Z"/>
  <path d="M382.43,262.31c1.33-.39,6.52-.41,7.36.66.72,1.56,1.02,7.06-.27,8.08-1.56.72-7.06,1.02-8.07-.27-.7-1.81-1.34-7.78.99-8.46Z"/>
  <path d="M401.75,270.91c-.51.82-7.31,1-8.49.13-1.35-1.06-.82-6.01-.5-7.75.9-1.53,6.76-1.43,8.3-.6,1.47,1.15.59,6.28.69,8.22Z"/>
  <path d="M240.65,108.95c1.33-.39,6.52-.41,7.36.66.72,1.56,1.02,7.06-.27,8.08-1.56.72-7.06,1.02-8.07-.27-.7-1.81-1.34-7.78.99-8.46Z"/>
  <path d="M429.68,262.31c1.33-.39,6.52-.41,7.36.66.72,1.56,1.02,7.06-.27,8.08-1.56.72-7.06,1.02-8.07-.27-.7-1.81-1.34-7.78.99-8.46Z"/>
  <path d="M3.55,282.95c-1.05-1.05-.96-6.45-.18-7.89,1.19-1.51,5.78-.36,7.78-1.06,1.5.84,1.4,7.31.57,8.86-.97,1.23-7.17,1.09-8.17.09Z"/>
  <path d="M217.02,108.95c1.33-.39,6.52-.41,7.36.66.72,1.56,1.02,7.06-.27,8.08-1.56.72-7.06,1.02-8.07-.27-.7-1.81-1.34-7.78.99-8.46Z"/>
  <path d="M87.75,273.97c.41-.06,4.92.23,5.51.33,3.08.55,2.3,8.2.84,9.06-1.84.31-7.1.97-7.98-.83-.75-1.53-.79-8.23,1.63-8.57Z"/>
  <path d="M181.85,108.95c1.33-.39,6.52-.41,7.36.66.72,1.56,1.02,7.06-.27,8.08-1.56.72-7.06,1.02-8.07-.27-.7-1.81-1.34-7.78.99-8.46Z"/>
  <path d="M158.22,108.95c1.33-.39,6.52-.41,7.36.66.72,1.56,1.02,7.06-.27,8.08-1.56.72-7.06,1.02-8.07-.27-.7-1.81-1.34-7.78.99-8.46Z"/>
  <path d="M146.13,108.95c1.33-.39,6.52-.41,7.36.66.72,1.56,1.02,7.06-.27,8.08-1.56.72-7.06,1.02-8.07-.27-.7-1.81-1.34-7.78.99-8.46Z"/>
  <path d="M134.59,108.95c1.33-.39,6.52-.41,7.36.66.72,1.56,1.02,7.06-.27,8.08-1.56.72-7.06,1.02-8.07-.27-.7-1.81-1.34-7.78.99-8.46Z"/>
  <path d="M122.5,108.95c1.33-.39,6.52-.41,7.36.66.72,1.56,1.02,7.06-.27,8.08-1.56.72-7.06,1.02-8.07-.27-.7-1.81-1.34-7.78.99-8.46Z"/>
  <path d="M39.22,274.36c1.94.11,7.06-.77,8.22.69.83,1.54.94,7.4-.6,8.3-1.74.32-6.69.85-7.75-.5-.87-1.18-.68-7.99.13-8.5Z"/>
  <path d="M110.96,108.95c1.33-.39,6.52-.41,7.36.66.72,1.56,1.02,7.06-.27,8.08-1.56.72-7.06,1.02-8.07-.27-.7-1.81-1.34-7.78.99-8.46Z"/>
  <path d="M382.43,274.4c1.33-.39,6.52-.41,7.36.66.72,1.56,1.02,7.06-.27,8.08-1.56.72-7.06,1.02-8.07-.27-.7-1.81-1.34-7.78.99-8.46Z"/>
  <path d="M63.71,108.95c1.33-.39,6.52-.41,7.36.66.72,1.56,1.02,7.06-.27,8.08-1.56.72-7.06,1.02-8.07-.27-.7-1.81-1.34-7.78.99-8.46Z"/>
  <path d="M51.62,108.95c1.33-.39,6.52-.41,7.36.66.72,1.56,1.02,7.06-.27,8.08-1.56.72-7.06,1.02-8.07-.27-.7-1.81-1.34-7.78.99-8.46Z"/>
  <path d="M16.45,285.94c1.33-.39,6.52-.41,7.36.66.72,1.56,1.02,7.06-.27,8.08-1.56.72-7.06,1.02-8.07-.27-.7-1.81-1.34-7.78.99-8.46Z"/>
  <path d="M75.25,285.94c1.33-.39,6.52-.41,7.36.66.72,1.56,1.02,7.06-.27,8.08-1.56.72-7.06,1.02-8.07-.27-.7-1.81-1.34-7.78.99-8.46Z"/>
  <path d="M110.96,285.94c1.33-.39,6.52-.41,7.36.66.72,1.56,1.02,7.06-.27,8.08-1.56.72-7.06,1.02-8.07-.27-.7-1.81-1.34-7.78.99-8.46Z"/>
  <path d="M158.22,285.94c1.33-.39,6.52-.41,7.36.66.72,1.56,1.02,7.06-.27,8.08-1.56.72-7.06,1.02-8.07-.27-.7-1.81-1.34-7.78.99-8.46Z"/>
  <path d="M169.76,285.94c1.33-.39,6.52-.41,7.36.66.72,1.56,1.02,7.06-.27,8.08-1.56.72-7.06,1.02-8.07-.27-.7-1.81-1.34-7.78.99-8.46Z"/>
  <path d="M193.39,285.94c1.33-.39,6.52-.41,7.36.66.72,1.56,1.02,7.06-.27,8.08-1.56.72-7.06,1.02-8.07-.27-.7-1.81-1.34-7.78.99-8.46Z"/>
  <path d="M406.05,96.86c1.33-.39,6.52-.41,7.36.66.72,1.56,1.02,7.06-.27,8.08-1.56.72-7.06,1.02-8.07-.27-.7-1.81-1.34-7.78.99-8.46Z"/>
  <path d="M382.43,96.86c1.33-.39,6.52-.41,7.36.66.72,1.56,1.02,7.06-.27,8.08-1.56.72-7.06,1.02-8.07-.27-.7-1.81-1.34-7.78.99-8.46Z"/>
  <path d="M311.54,285.94c1.33-.39,6.52-.41,7.36.66.72,1.56,1.02,7.06-.27,8.08-1.56.72-7.06,1.02-8.07-.27-.7-1.81-1.34-7.78.99-8.46Z"/>
  <path d="M358.8,96.86c1.33-.39,6.52-.41,7.36.66.72,1.56,1.02,7.06-.27,8.08-1.56.72-7.06,1.02-8.07-.27-.7-1.81-1.34-7.78.99-8.46Z"/>
  <path d="M311.54,96.86c1.33-.39,6.52-.41,7.36.66.72,1.56,1.02,7.06-.27,8.08-1.56.72-7.06,1.02-8.07-.27-.7-1.81-1.34-7.78.99-8.46Z"/>
  <path d="M406.05,285.94c1.33-.39,6.52-.41,7.36.66.72,1.56,1.02,7.06-.27,8.08-1.56.72-7.06,1.02-8.07-.27-.7-1.81-1.34-7.78.99-8.46Z"/>
  <path d="M193.39,96.86c1.33-.39,6.52-.41,7.36.66.72,1.56,1.02,7.06-.27,8.08-1.56.72-7.06,1.02-8.07-.27-.7-1.81-1.34-7.78.99-8.46Z"/>
  <path d="M169.76,96.86c1.33-.39,6.52-.41,7.36.66.72,1.56,1.02,7.06-.27,8.08-1.56.72-7.06,1.02-8.07-.27-.7-1.81-1.34-7.78.99-8.46Z"/>
  <path d="M158.22,96.86c1.33-.39,6.52-.41,7.36.66.72,1.56,1.02,7.06-.27,8.08-1.56.72-7.06,1.02-8.07-.27-.7-1.81-1.34-7.78.99-8.46Z"/>
  <path d="M122.5,96.86c1.33-.39,6.52-.41,7.36.66.72,1.56,1.02,7.06-.27,8.08-1.56.72-7.06,1.02-8.07-.27-.7-1.81-1.34-7.78.99-8.46Z"/>
  <path d="M75.25,96.86c1.33-.39,6.52-.41,7.36.66.72,1.56,1.02,7.06-.27,8.08-1.56.72-7.06,1.02-8.07-.27-.7-1.81-1.34-7.78.99-8.46Z"/>
  <path d="M63.71,96.86c1.33-.39,6.52-.41,7.36.66.72,1.56,1.02,7.06-.27,8.08-1.56.72-7.06,1.02-8.07-.27-.7-1.81-1.34-7.78.99-8.46Z"/>
  <path d="M51.62,96.86c1.33-.39,6.52-.41,7.36.66.72,1.56,1.02,7.06-.27,8.08-1.56.72-7.06,1.02-8.07-.27-.7-1.81-1.34-7.78.99-8.46Z"/>
  <path d="M40.08,96.86c1.33-.39,6.52-.41,7.36.66.72,1.56,1.02,7.06-.27,8.08-1.56.72-7.06,1.02-8.07-.27-.7-1.81-1.34-7.78.99-8.46Z"/>
  <path d="M271.51,424.81c-1.94-.11-7.06.77-8.22-.69-.83-1.54-.94-7.4.6-8.3,1.74-.32,6.69-.85,7.75.5.87,1.18.68,7.99-.13,8.5Z"/>
  <path d="M35.22,298c.82.51,1,7.32.13,8.5-1.06,1.35-6.01.82-7.75.5-1.53-.9-1.43-6.76-.6-8.3,1.15-1.47,6.27-.59,8.22-.69Z"/>
  <path d="M129.73,298c.82.51,1,7.32.13,8.5-1.06,1.35-6.01.82-7.75.5-1.53-.9-1.43-6.76-.6-8.3,1.15-1.47,6.27-.59,8.22-.69Z"/>
  <path d="M133.74,298c1.94.11,7.06-.77,8.22.69.83,1.54.94,7.4-.6,8.3-1.74.32-6.69.85-7.75-.5-.87-1.18-.68-7.99.13-8.5Z"/>
  <path d="M157.37,424.81c-.82-.51-1-7.32-.13-8.5,1.06-1.35,6.01-.82,7.75-.5,1.53.9,1.43,6.76.6,8.3-1.15,1.47-6.27.59-8.22.69Z"/>
  <path d="M181,298c1.94.11,7.06-.77,8.22.69.83,1.54.94,7.4-.6,8.3-1.74.32-6.69.85-7.75-.5-.87-1.18-.68-7.99.13-8.5Z"/>
  <path d="M204.62,298c1.94.11,7.06-.77,8.22.69.83,1.54.94,7.4-.6,8.3-1.74.32-6.69.85-7.75-.5-.87-1.18-.68-7.99.13-8.5Z"/>
  <path d="M27.99,96.86c1.33-.39,6.52-.41,7.36.66.72,1.56,1.02,7.06-.27,8.08-1.56.72-7.06,1.02-8.07-.27-.7-1.81-1.34-7.78.99-8.46Z"/>
  <path d="M298.59,85.84c.51-.82,7.31-1,8.49-.13,1.35,1.06.82,6.01.5,7.75-.9,1.53-6.76,1.43-8.3.6-1.47-1.15-.59-6.28-.69-8.22Z"/>
  <path d="M307.18,306.59c-1.05,1.05-6.45.96-7.89.18-1.39-1.1-.76-6.49-.53-8.33,7.89-2,11.07-.2,8.42,8.15Z"/>
  <path d="M342.4,298c.82.51,1,7.32.13,8.5-1.06,1.35-6.01.82-7.75.5-1.53-.9-1.43-6.76-.6-8.3,1.15-1.47,6.27-.59,8.22-.69Z"/>
  <path d="M287.91,85.32c1.33-.39,6.52-.41,7.36.66.72,1.56,1.02,7.06-.27,8.08-1.56.72-7.06,1.02-8.07-.27-.7-1.81-1.34-7.78.99-8.46Z"/>
  <path d="M429.68,404.12c1.33-.39,6.52-.41,7.36.66.72,1.56,1.02,7.06-.27,8.08-1.56.72-7.06,1.02-8.07-.27-.7-1.81-1.34-7.78.99-8.46Z"/>
  <path d="M51.62,309.58c1.33-.39,6.52-.41,7.36.66.72,1.56,1.02,7.06-.27,8.08-1.56.72-7.06,1.02-8.07-.27-.7-1.81-1.34-7.78.99-8.46Z"/>
  <path d="M63.71,309.58c1.33-.39,6.52-.41,7.36.66.72,1.56,1.02,7.06-.27,8.08-1.56.72-7.06,1.02-8.07-.27-.7-1.81-1.34-7.78.99-8.46Z"/>
  <path d="M75.25,309.58c1.33-.39,6.52-.41,7.36.66.72,1.56,1.02,7.06-.27,8.08-1.56.72-7.06,1.02-8.07-.27-.7-1.81-1.34-7.78.99-8.46Z"/>
  <path d="M110.96,309.58c1.33-.39,6.52-.41,7.36.66.72,1.56,1.02,7.06-.27,8.08-1.56.72-7.06,1.02-8.07-.27-.7-1.81-1.34-7.78.99-8.46Z"/>
  <path d="M134.59,309.58c1.33-.39,6.52-.41,7.36.66.72,1.56,1.02,7.06-.27,8.08-1.56.72-7.06,1.02-8.07-.27-.7-1.81-1.34-7.78.99-8.46Z"/>
  <path d="M146.13,309.58c1.33-.39,6.52-.41,7.36.66.72,1.56,1.02,7.06-.27,8.08-1.56.72-7.06,1.02-8.07-.27-.7-1.81-1.34-7.78.99-8.46Z"/>
  <path d="M181.85,309.58c1.33-.39,6.52-.41,7.36.66.72,1.56,1.02,7.06-.27,8.08-1.56.72-7.06,1.02-8.07-.27-.7-1.81-1.34-7.78.99-8.46Z"/>
  <path d="M193.39,309.58c1.33-.39,6.52-.41,7.36.66.72,1.56,1.02,7.06-.27,8.08-1.56.72-7.06,1.02-8.07-.27-.7-1.81-1.34-7.78.99-8.46Z"/>
  <path d="M229.11,309.58c1.33-.39,6.52-.41,7.36.66.72,1.56,1.02,7.06-.27,8.08-1.56.72-7.06,1.02-8.07-.27-.7-1.81-1.34-7.78.99-8.46Z"/>
  <path d="M252.74,309.58c1.33-.39,6.52-.41,7.36.66.72,1.56,1.02,7.06-.27,8.08-1.56.72-7.06,1.02-8.07-.27-.7-1.81-1.34-7.78.99-8.46Z"/>
  <path d="M264.28,85.32c1.33-.39,6.52-.41,7.36.66.72,1.56,1.02,7.06-.27,8.08-1.56.72-7.06,1.02-8.07-.27-.7-1.81-1.34-7.78.99-8.46Z"/>
  <path d="M311.54,309.58c1.33-.39,6.52-.41,7.36.66.72,1.56,1.02,7.06-.27,8.08-1.56.72-7.06,1.02-8.07-.27-.7-1.81-1.34-7.78.99-8.46Z"/>
  <path d="M406.05,404.12c1.33-.39,6.52-.41,7.36.66.72,1.56,1.02,7.06-.27,8.08-1.56.72-7.06,1.02-8.07-.27-.7-1.81-1.34-7.78.99-8.46Z"/>
  <path d="M358.8,309.58c1.33-.39,6.52-.41,7.36.66.72,1.56,1.02,7.06-.27,8.08-1.56.72-7.06,1.02-8.07-.27-.7-1.81-1.34-7.78.99-8.46Z"/>
  <path d="M382.43,309.58c1.33-.39,6.52-.41,7.36.66.72,1.56,1.02,7.06-.27,8.08-1.56.72-7.06,1.02-8.07-.27-.7-1.81-1.34-7.78.99-8.46Z"/>
  <path d="M217.02,85.32c1.33-.39,6.52-.41,7.36.66.72,1.56,1.02,7.06-.27,8.08-1.56.72-7.06,1.02-8.07-.27-.7-1.81-1.34-7.78.99-8.46Z"/>
  <path d="M429.68,309.58c1.33-.39,6.52-.41,7.36.66.72,1.56,1.02,7.06-.27,8.08-1.56.72-7.06,1.02-8.07-.27-.7-1.81-1.34-7.78.99-8.46Z"/>
  <path d="M205.48,85.32c1.33-.39,6.52-.41,7.36.66.72,1.56,1.02,7.06-.27,8.08-1.56.72-7.06,1.02-8.07-.27-.7-1.81-1.34-7.78.99-8.46Z"/>
  <path d="M193.39,85.32c1.33-.39,6.52-.41,7.36.66.72,1.56,1.02,7.06-.27,8.08-1.56.72-7.06,1.02-8.07-.27-.7-1.81-1.34-7.78.99-8.46Z"/>
  <path d="M181.85,85.32c1.33-.39,6.52-.41,7.36.66.72,1.56,1.02,7.06-.27,8.08-1.56.72-7.06,1.02-8.07-.27-.7-1.81-1.34-7.78.99-8.46Z"/>
  <path d="M169.76,85.32c1.33-.39,6.52-.41,7.36.66.72,1.56,1.02,7.06-.27,8.08-1.56.72-7.06,1.02-8.07-.27-.7-1.81-1.34-7.78.99-8.46Z"/>
  <path d="M146.13,85.32c1.33-.39,6.52-.41,7.36.66.72,1.56,1.02,7.06-.27,8.08-1.56.72-7.06,1.02-8.07-.27-.7-1.81-1.34-7.78.99-8.46Z"/>
  <path d="M134.59,85.32c1.33-.39,6.52-.41,7.36.66.72,1.56,1.02,7.06-.27,8.08-1.56.72-7.06,1.02-8.07-.27-.7-1.81-1.34-7.78.99-8.46Z"/>
  <path d="M122.5,85.32c1.33-.39,6.52-.41,7.36.66.72,1.56,1.02,7.06-.27,8.08-1.56.72-7.06,1.02-8.07-.27-.7-1.81-1.34-7.78.99-8.46Z"/>
  <path d="M110.96,85.32c1.33-.39,6.52-.41,7.36.66.72,1.56,1.02,7.06-.27,8.08-1.56.72-7.06,1.02-8.07-.27-.7-1.81-1.34-7.78.99-8.46Z"/>
  <path d="M98.88,85.32c1.33-.39,6.52-.41,7.36.66.72,1.56,1.02,7.06-.27,8.08-1.56.72-7.06,1.02-8.07-.27-.7-1.81-1.34-7.78.99-8.46Z"/>
  <path d="M335.17,73.23c1.33-.39,6.52-.41,7.36.66.72,1.56,1.02,7.06-.27,8.08-1.56.72-7.06,1.02-8.07-.27-.7-1.81-1.34-7.78.99-8.46Z"/>
  <path d="M311.54,73.23c1.33-.39,6.52-.41,7.36.66.72,1.56,1.02,7.06-.27,8.08-1.56.72-7.06,1.02-8.07-.27-.7-1.81-1.34-7.78.99-8.46Z"/>
  <path d="M287.91,73.23c1.33-.39,6.52-.41,7.36.66.72,1.56,1.02,7.06-.27,8.08-1.56.72-7.06,1.02-8.07-.27-.7-1.81-1.34-7.78.99-8.46Z"/>
  <path d="M264.28,73.23c1.33-.39,6.52-.41,7.36.66.72,1.56,1.02,7.06-.27,8.08-1.56.72-7.06,1.02-8.07-.27-.7-1.81-1.34-7.78.99-8.46Z"/>
  <path d="M240.65,73.23c1.33-.39,6.52-.41,7.36.66.72,1.56,1.02,7.06-.27,8.08-1.56.72-7.06,1.02-8.07-.27-.7-1.81-1.34-7.78.99-8.46Z"/>
  <path d="M217.02,73.23c1.33-.39,6.52-.41,7.36.66.72,1.56,1.02,7.06-.27,8.08-1.56.72-7.06,1.02-8.07-.27-.7-1.81-1.34-7.78.99-8.46Z"/>
  <path d="M193.39,73.23c1.33-.39,6.52-.41,7.36.66.72,1.56,1.02,7.06-.27,8.08-1.56.72-7.06,1.02-8.07-.27-.7-1.81-1.34-7.78.99-8.46Z"/>
  <path d="M169.76,73.23c1.33-.39,6.52-.41,7.36.66.72,1.56,1.02,7.06-.27,8.08-1.56.72-7.06,1.02-8.07-.27-.7-1.81-1.34-7.78.99-8.46Z"/>
  <path d="M146.13,73.23c1.33-.39,6.52-.41,7.36.66.72,1.56,1.02,7.06-.27,8.08-1.56.72-7.06,1.02-8.07-.27-.7-1.81-1.34-7.78.99-8.46Z"/>
  <path d="M122.5,73.23c1.33-.39,6.52-.41,7.36.66.72,1.56,1.02,7.06-.27,8.08-1.56.72-7.06,1.02-8.07-.27-.7-1.81-1.34-7.78.99-8.46Z"/>
  <path d="M98.88,73.23c1.33-.39,6.52-.41,7.36.66.72,1.56,1.02,7.06-.27,8.08-1.56.72-7.06,1.02-8.07-.27-.7-1.81-1.34-7.78.99-8.46Z"/>
  <path d="M311.54,404.12c1.33-.39,6.52-.41,7.36.66.72,1.56,1.02,7.06-.27,8.08-1.56.72-7.06,1.02-8.07-.27-.7-1.81-1.34-7.78.99-8.46Z"/>
  <path d="M27.99,333.21c1.33-.39,6.52-.41,7.36.66.72,1.56,1.02,7.06-.27,8.08-1.56.72-7.06,1.02-8.07-.27-.7-1.81-1.34-7.78.99-8.46Z"/>
  <path d="M51.62,333.21c1.33-.39,6.52-.41,7.36.66.72,1.56,1.02,7.06-.27,8.08-1.56.72-7.06,1.02-8.07-.27-.7-1.81-1.34-7.78.99-8.46Z"/>
  <path d="M63.71,333.21c1.33-.39,6.52-.41,7.36.66.72,1.56,1.02,7.06-.27,8.08-1.56.72-7.06,1.02-8.07-.27-.7-1.81-1.34-7.78.99-8.46Z"/>
  <path d="M75.25,333.21c1.33-.39,6.52-.41,7.36.66.72,1.56,1.02,7.06-.27,8.08-1.56.72-7.06,1.02-8.07-.27-.7-1.81-1.34-7.78.99-8.46Z"/>
  <path d="M87.34,333.21c1.33-.39,6.52-.41,7.36.66.72,1.56,1.02,7.06-.27,8.08-1.56.72-7.06,1.02-8.07-.27-.7-1.81-1.34-7.78.99-8.46Z"/>
  <path d="M98.88,333.21c1.33-.39,6.52-.41,7.36.66.72,1.56,1.02,7.06-.27,8.08-1.56.72-7.06,1.02-8.07-.27-.7-1.81-1.34-7.78.99-8.46Z"/>
  <path d="M122.5,333.21c1.33-.39,6.52-.41,7.36.66.72,1.56,1.02,7.06-.27,8.08-1.56.72-7.06,1.02-8.07-.27-.7-1.81-1.34-7.78.99-8.46Z"/>
  <path d="M146.13,333.21c1.33-.39,6.52-.41,7.36.66.72,1.56,1.02,7.06-.27,8.08-1.56.72-7.06,1.02-8.07-.27-.7-1.81-1.34-7.78.99-8.46Z"/>
  <path d="M181.85,333.21c1.33-.39,6.52-.41,7.36.66.72,1.56,1.02,7.06-.27,8.08-1.56.72-7.06,1.02-8.07-.27-.7-1.81-1.34-7.78.99-8.46Z"/>
  <path d="M335.17,61.68c1.33-.39,6.52-.41,7.36.66.72,1.56,1.02,7.06-.27,8.08-1.56.72-7.06,1.02-8.07-.27-.7-1.81-1.34-7.78.99-8.46Z"/>
  <path d="M287.91,404.12c1.33-.39,6.52-.41,7.36.66.72,1.56,1.02,7.06-.27,8.08-1.56.72-7.06,1.02-8.07-.27-.7-1.81-1.34-7.78.99-8.46Z"/>
  <path d="M264.28,333.21c1.33-.39,6.52-.41,7.36.66.72,1.56,1.02,7.06-.27,8.08-1.56.72-7.06,1.02-8.07-.27-.7-1.81-1.34-7.78.99-8.46Z"/>
  <path d="M287.91,333.21c1.33-.39,6.52-.41,7.36.66.72,1.56,1.02,7.06-.27,8.08-1.56.72-7.06,1.02-8.07-.27-.7-1.81-1.34-7.78.99-8.46Z"/>
  <path d="M298.59,341.82c.11-1.94-.77-7.07.69-8.22,1.54-.83,7.4-.94,8.3.6.32,1.74.85,6.69-.5,7.75-1.18.87-7.98.68-8.49-.13Z"/>
  <path d="M311.54,333.21c1.33-.39,6.52-.41,7.36.66.72,1.56,1.02,7.06-.27,8.08-1.56.72-7.06,1.02-8.07-.27-.7-1.81-1.34-7.78.99-8.46Z"/>
  <path d="M335.17,333.21c1.33-.39,6.52-.41,7.36.66.72,1.56,1.02,7.06-.27,8.08-1.56.72-7.06,1.02-8.07-.27-.7-1.81-1.34-7.78.99-8.46Z"/>
  <path d="M311.54,61.68c1.33-.39,6.52-.41,7.36.66.72,1.56,1.02,7.06-.27,8.08-1.56.72-7.06,1.02-8.07-.27-.7-1.81-1.34-7.78.99-8.46Z"/>
  <path d="M358.8,333.21c1.33-.39,6.52-.41,7.36.66.72,1.56,1.02,7.06-.27,8.08-1.56.72-7.06,1.02-8.07-.27-.7-1.81-1.34-7.78.99-8.46Z"/>
  <path d="M252.74,61.68c1.33-.39,6.52-.41,7.36.66.7,1.44.95,6.76-.04,7.76-1.18,1.19-6.97,1.3-8.29.01-1.22-1.18-1.04-7.84.97-8.43Z"/>
  <path d="M382.43,333.21c1.33-.39,6.52-.41,7.36.66.72,1.56,1.02,7.06-.27,8.08-1.56.72-7.06,1.02-8.07-.27-.7-1.81-1.34-7.78.99-8.46Z"/>
  <path d="M406.05,333.21c1.33-.39,6.52-.41,7.36.66.72,1.56,1.02,7.06-.27,8.08-1.56.72-7.06,1.02-8.07-.27-.7-1.81-1.34-7.78.99-8.46Z"/>
  <path d="M429.68,333.21c1.33-.39,6.52-.41,7.36.66.72,1.56,1.02,7.06-.27,8.08-1.56.72-7.06,1.02-8.07-.27-.7-1.81-1.34-7.78.99-8.46Z"/>
  <path d="M240.65,61.68c1.33-.39,6.52-.41,7.36.66.72,1.56,1.02,7.06-.27,8.08-1.56.72-7.06,1.02-8.07-.27-.7-1.81-1.34-7.78.99-8.46Z"/>
  <path d="M205.48,61.68c1.33-.39,6.52-.41,7.36.66.72,1.56,1.02,7.06-.27,8.08-1.56.72-7.06,1.02-8.07-.27-.7-1.81-1.34-7.78.99-8.46Z"/>
  <path d="M181.85,61.68c1.33-.39,6.52-.41,7.36.66.72,1.56,1.02,7.06-.27,8.08-1.56.72-7.06,1.02-8.07-.27-.7-1.81-1.34-7.78.99-8.46Z"/>
  <path d="M169.76,61.68c1.33-.39,6.52-.41,7.36.66.72,1.56,1.02,7.06-.27,8.08-1.56.72-7.06,1.02-8.07-.27-.7-1.81-1.34-7.78.99-8.46Z"/>
  <path d="M158.22,61.68c1.33-.39,6.52-.41,7.36.66.72,1.56,1.02,7.06-.27,8.08-1.56.72-7.06,1.02-8.07-.27-.7-1.81-1.34-7.78.99-8.46Z"/>
  <path d="M98.88,61.68c1.33-.39,6.52-.41,7.36.66.72,1.56,1.02,7.06-.27,8.08-1.56.72-7.06,1.02-8.07-.27-.7-1.81-1.34-7.78.99-8.46Z"/>
  <path d="M335.17,49.59c1.33-.39,6.52-.41,7.36.66.72,1.56,1.02,7.06-.27,8.08-1.56.72-7.06,1.02-8.07-.27-.7-1.81-1.34-7.78.99-8.46Z"/>
  <path d="M298.59,58.2c.11-1.94-.77-7.07.69-8.22,1.54-.83,7.4-.94,8.3.6.32,1.74.85,6.69-.5,7.75-1.18.87-7.98.68-8.49-.13Z"/>
  <path d="M274.96,58.2c.11-1.94-.77-7.07.69-8.22,1.54-.83,7.4-.94,8.3.6.32,1.74.85,6.69-.5,7.75-1.18.87-7.98.68-8.49-.13Z"/>
  <path d="M264.28,49.59c1.33-.39,6.52-.41,7.36.66.72,1.56,1.02,7.06-.27,8.08-1.56.72-7.06,1.02-8.07-.27-.7-1.81-1.34-7.78.99-8.46Z"/>
  <path d="M122.48,2.3c1.22-.41,6.57-.35,7.38.68.72,1.56,1.02,7.06-.28,8.08-1.12.88-7.06,1.13-8.06-.29s-.97-7.82.96-8.47Z"/>
  <path d="M240.65,49.59c1.33-.39,6.52-.41,7.36.66.72,1.56,1.02,7.06-.27,8.08-1.56.72-7.06,1.02-8.07-.27-.7-1.81-1.34-7.78.99-8.46Z"/>
  <path d="M229.11,49.59c1.33-.39,6.52-.41,7.36.66.72,1.56,1.02,7.06-.27,8.08-1.56.72-7.06,1.02-8.07-.27-.7-1.81-1.34-7.78.99-8.46Z"/>
  <path d="M205.48,49.59c1.33-.39,6.52-.41,7.36.66.72,1.56,1.02,7.06-.27,8.08-1.56.72-7.06,1.02-8.07-.27-.7-1.81-1.34-7.78.99-8.46Z"/>
  <path d="M181.85,49.59c1.33-.39,6.52-.41,7.36.66.72,1.56,1.02,7.06-.27,8.08-1.56.72-7.06,1.02-8.07-.27-.7-1.81-1.34-7.78.99-8.46Z"/>
  <path d="M122.5,356.85c1.33-.39,6.52-.41,7.36.66.72,1.56,1.02,7.06-.27,8.08-1.56.72-7.06,1.02-8.07-.27-.7-1.81-1.34-7.78.99-8.46Z"/>
  <path d="M146.13,356.85c1.33-.39,6.52-.41,7.36.66.72,1.56,1.02,7.06-.27,8.08-1.56.72-7.06,1.02-8.07-.27-.7-1.81-1.34-7.78.99-8.46Z"/>
  <path d="M158.22,356.85c1.33-.39,6.52-.41,7.36.66.72,1.56,1.02,7.06-.27,8.08-1.56.72-7.06,1.02-8.07-.27-.7-1.81-1.34-7.78.99-8.46Z"/>
  <path d="M181.85,356.85c1.33-.39,6.52-.41,7.36.66.72,1.56,1.02,7.06-.27,8.08-1.56.72-7.06,1.02-8.07-.27-.7-1.81-1.34-7.78.99-8.46Z"/>
  <path d="M217.02,356.85c1.33-.39,6.52-.41,7.36.66.72,1.56,1.02,7.06-.27,8.08-1.56.72-7.06,1.02-8.07-.27-.7-1.81-1.34-7.78.99-8.46Z"/>
  <path d="M264.28,356.85c1.33-.39,6.52-.41,7.36.66.72,1.56,1.02,7.06-.27,8.08-1.56.72-7.06,1.02-8.07-.27-.7-1.81-1.34-7.78.99-8.46Z"/>
  <path d="M335.17,356.85c1.33-.39,6.52-.41,7.36.66.72,1.56,1.02,7.06-.27,8.08-1.56.72-7.06,1.02-8.07-.27-.7-1.81-1.34-7.78.99-8.46Z"/>
  <path d="M358.8,356.85c1.33-.39,6.52-.41,7.36.66.72,1.56,1.02,7.06-.27,8.08-1.56.72-7.06,1.02-8.07-.27-.7-1.81-1.34-7.78.99-8.46Z"/>
  <path d="M382.43,356.85c1.33-.39,6.52-.41,7.36.66.72,1.56,1.02,7.06-.27,8.08-1.56.72-7.06,1.02-8.07-.27-.7-1.81-1.34-7.78.99-8.46Z"/>
  <path d="M406.05,356.85c1.33-.39,6.52-.41,7.36.66.72,1.56,1.02,7.06-.27,8.08-1.56.72-7.06,1.02-8.07-.27-.7-1.81-1.34-7.78.99-8.46Z"/>
  <path d="M240.65,404.12c1.33-.39,6.52-.41,7.36.66.72,1.56,1.02,7.06-.27,8.08-1.56.72-7.06,1.02-8.07-.27-.7-1.81-1.34-7.78.99-8.46Z"/>
  <path d="M429.68,356.85c1.33-.39,6.52-.41,7.36.66.72,1.56,1.02,7.06-.27,8.08-1.56.72-7.06,1.02-8.07-.27-.7-1.81-1.34-7.78.99-8.46Z"/>
  <path d="M169.76,49.59c1.33-.39,6.52-.41,7.36.66.72,1.56,1.02,7.06-.27,8.08-1.56.72-7.06,1.02-8.07-.27-.7-1.81-1.34-7.78.99-8.46Z"/>
  <path d="M158.22,49.59c1.33-.39,6.52-.41,7.36.66.72,1.56,1.02,7.06-.27,8.08-1.56.72-7.06,1.02-8.07-.27-.7-1.81-1.34-7.78.99-8.46Z"/>
  <path d="M146.13,49.59c1.33-.39,6.52-.41,7.36.66.72,1.56,1.02,7.06-.27,8.08-1.56.72-7.06,1.02-8.07-.27-.7-1.81-1.34-7.78.99-8.46Z"/>
  <path d="M134.59,49.59c1.33-.39,6.52-.41,7.36.66.72,1.56,1.02,7.06-.27,8.08-1.56.72-7.06,1.02-8.07-.27-.7-1.81-1.34-7.78.99-8.46Z"/>
  <path d="M122.5,49.59c1.33-.39,6.52-.41,7.36.66.72,1.56,1.02,7.06-.27,8.08-1.56.72-7.06,1.02-8.07-.27-.7-1.81-1.34-7.78.99-8.46Z"/>
  <path d="M110.96,49.59c1.33-.39,6.52-.41,7.36.66.72,1.56,1.02,7.06-.27,8.08-1.56.72-7.06,1.02-8.07-.27-.7-1.81-1.34-7.78.99-8.46Z"/>
  <path d="M98.88,49.59c1.33-.39,6.52-.41,7.36.66.72,1.56,1.02,7.06-.27,8.08-1.56.72-7.06,1.02-8.07-.27-.7-1.81-1.34-7.78.99-8.46Z"/>
  <path d="M335.17,38.05c1.33-.39,6.52-.41,7.36.66.72,1.56,1.02,7.06-.27,8.08-1.56.72-7.06,1.02-8.07-.27-.7-1.81-1.34-7.78.99-8.46Z"/>
  <path d="M287.91,38.05c1.33-.39,6.52-.41,7.36.66.72,1.56,1.02,7.06-.27,8.08-1.56.72-7.06,1.02-8.07-.27-.7-1.81-1.34-7.78.99-8.46Z"/>
  <path d="M274.96,38.57c.51-.82,7.31-1,8.49-.13,1.35,1.06.82,6.01.5,7.75-.9,1.53-6.76,1.43-8.3.6-1.47-1.15-.59-6.28-.69-8.22Z"/>
  <path d="M240.65,38.05c1.33-.39,6.52-.41,7.36.66.72,1.56,1.02,7.06-.27,8.08-1.56.72-7.06,1.02-8.07-.27-.7-1.81-1.34-7.78.99-8.46Z"/>
  <path d="M181.85,38.05c1.33-.39,6.52-.41,7.36.66.72,1.56,1.02,7.06-.27,8.08-1.56.72-7.06,1.02-8.07-.27-.7-1.81-1.34-7.78.99-8.46Z"/>
  <path d="M169.76,38.05c1.33-.39,6.52-.41,7.36.66.72,1.56,1.02,7.06-.27,8.08-1.56.72-7.06,1.02-8.07-.27-.7-1.81-1.34-7.78.99-8.46Z"/>
  <path d="M158.22,38.05c1.33-.39,6.52-.41,7.36.66.72,1.56,1.02,7.06-.27,8.08-1.56.72-7.06,1.02-8.07-.27-.7-1.81-1.34-7.78.99-8.46Z"/>
  <path d="M134.59,38.05c1.33-.39,6.52-.41,7.36.66.72,1.56,1.02,7.06-.27,8.08-1.56.72-7.06,1.02-8.07-.27-.7-1.81-1.34-7.78.99-8.46Z"/>
  <path d="M98.88,38.05c1.33-.39,6.52-.41,7.36.66.72,1.56,1.02,7.06-.27,8.08-1.56.72-7.06,1.02-8.07-.27-.7-1.81-1.34-7.78.99-8.46Z"/>
  <path d="M98.88,380.48c1.33-.39,6.52-.41,7.36.66.72,1.56,1.02,7.06-.27,8.08-1.56.72-7.06,1.02-8.07-.27-.7-1.81-1.34-7.78.99-8.46Z"/>
  <path d="M110.96,380.48c1.33-.39,6.52-.41,7.36.66.72,1.56,1.02,7.06-.27,8.08-1.56.72-7.06,1.02-8.07-.27-.7-1.81-1.34-7.78.99-8.46Z"/>
  <path d="M146.13,380.48c1.33-.39,6.52-.41,7.36.66.72,1.56,1.02,7.06-.27,8.08-1.56.72-7.06,1.02-8.07-.27-.7-1.81-1.34-7.78.99-8.46Z"/>
  <path d="M217.02,380.48c1.33-.39,6.52-.41,7.36.66.72,1.56,1.02,7.06-.27,8.08-1.56.72-7.06,1.02-8.07-.27-.7-1.81-1.34-7.78.99-8.46Z"/>
  <path d="M240.65,380.48c1.33-.39,6.52-.41,7.36.66.72,1.56,1.02,7.06-.27,8.08-1.56.72-7.06,1.02-8.07-.27-.7-1.81-1.34-7.78.99-8.46Z"/>
  <path d="M252.74,380.48c1.33-.39,6.52-.41,7.36.66.72,1.56,1.02,7.06-.27,8.08-1.56.72-7.06,1.02-8.07-.27-.7-1.81-1.34-7.78.99-8.46Z"/>
  <path d="M264.28,380.48c1.33-.39,6.52-.41,7.36.66.72,1.56,1.02,7.06-.27,8.08-1.56.72-7.06,1.02-8.07-.27-.7-1.81-1.34-7.78.99-8.46Z"/>
  <path d="M158.22,25.96c1.33-.39,6.52-.41,7.36.66.72,1.56,1.02,7.06-.27,8.08-1.56.72-7.06,1.02-8.07-.27-.7-1.81-1.34-7.78.99-8.46Z"/>
  <path d="M287.91,380.48c1.33-.39,6.52-.41,7.36.66.72,1.56,1.02,7.06-.27,8.08-1.56.72-7.06,1.02-8.07-.27-.7-1.81-1.34-7.78.99-8.46Z"/>
  <path d="M98.88,25.96c1.33-.39,6.52-.41,7.36.66.72,1.56,1.02,7.06-.27,8.08-1.56.72-7.06,1.02-8.07-.27-.7-1.81-1.34-7.78.99-8.46Z"/>
  <path d="M335.17,380.48c1.33-.39,6.52-.41,7.36.66.72,1.56,1.02,7.06-.27,8.08-1.56.72-7.06,1.02-8.07-.27-.7-1.81-1.34-7.78.99-8.46Z"/>
  <path d="M335.17,14.41c1.33-.39,6.52-.41,7.36.66.72,1.56,1.02,7.06-.27,8.08-1.56.72-7.06,1.02-8.07-.27-.7-1.81-1.34-7.78.99-8.46Z"/>
  <path d="M358.8,380.48c1.33-.39,6.52-.41,7.36.66.72,1.56,1.02,7.06-.27,8.08-1.56.72-7.06,1.02-8.07-.27-.7-1.81-1.34-7.78.99-8.46Z"/>
  <path d="M311.54,14.41c1.33-.39,6.52-.41,7.36.66.72,1.56,1.02,7.06-.27,8.08-1.56.72-7.06,1.02-8.07-.27-.7-1.81-1.34-7.78.99-8.46Z"/>
  <path d="M382.43,380.48c1.33-.39,6.52-.41,7.36.66.72,1.56,1.02,7.06-.27,8.08-1.56.72-7.06,1.02-8.07-.27-.7-1.81-1.34-7.78.99-8.46Z"/>
  <path d="M406.05,380.48c1.33-.39,6.52-.41,7.36.66.72,1.56,1.02,7.06-.27,8.08-1.56.72-7.06,1.02-8.07-.27-.7-1.81-1.34-7.78.99-8.46Z"/>
  <path d="M287.91,14.41c1.33-.39,6.52-.41,7.36.66.72,1.56,1.02,7.06-.27,8.08-1.56.72-7.06,1.02-8.07-.27-.7-1.81-1.34-7.78.99-8.46Z"/>
  <path d="M274.96,14.93c.51-.82,7.31-1,8.49-.13,1.35,1.06.82,6.01.5,7.75-.9,1.53-6.76,1.43-8.3.6-1.47-1.15-.59-6.28-.69-8.22Z"/>
  <path d="M110.11,401.18c-.82-.51-1-7.32-.13-8.5,1.06-1.35,6.01-.82,7.75-.5,1.53.9,1.43,6.76.6,8.3-1.15,1.47-6.27.59-8.22.69Z"/>
  <path d="M129.73,401.18c-1.94-.11-7.06.77-8.22-.69-.83-1.54-.94-7.4.6-8.3,1.74-.32,6.69-.85,7.75.5.87,1.18.68,7.99-.13,8.5Z"/>
  <path d="M240.65,14.41c1.33-.39,6.52-.41,7.36.66.72,1.56,1.02,7.06-.27,8.08-1.56.72-7.06,1.02-8.07-.27-.7-1.81-1.34-7.78.99-8.46Z"/>
  <path d="M157.37,401.18c-.82-.51-1-7.32-.13-8.5,1.06-1.35,6.01-.82,7.75-.5,1.53.9,1.43,6.76.6,8.3-1.15,1.47-6.27.59-8.22.69Z"/>
  <path d="M181,401.18c-.82-.51-1-7.32-.13-8.5,1.06-1.35,6.01-.82,7.75-.5,1.53.9,1.43,6.76.6,8.3-1.15,1.47-6.27.59-8.22.69Z"/>
  <path d="M217.02,14.41c1.33-.39,6.52-.41,7.36.66.72,1.56,1.02,7.06-.27,8.08-1.56.72-7.06,1.02-8.07-.27-.7-1.81-1.34-7.78.99-8.46Z"/>
  <path d="M204.62,401.18c-.82-.51-1-7.32-.13-8.5,1.06-1.35,6.01-.82,7.75-.5,1.53.9,1.43,6.76.6,8.3-1.15,1.47-6.27.59-8.22.69Z"/>
  <path d="M307.18,392.59c1.05,1.05.96,6.45.18,7.89-1.1,1.39-6.49.76-8.33.53-2-7.89-.2-11.07,8.15-8.42Z"/>
  <path d="M205.48,14.41c1.33-.39,6.52-.41,7.36.66.72,1.56,1.02,7.06-.27,8.08-1.56.72-7.06,1.02-8.07-.27-.7-1.81-1.34-7.78.99-8.46Z"/>
  <path d="M181.85,14.41c1.33-.39,6.52-.41,7.36.66.72,1.56,1.02,7.06-.27,8.08-1.56.72-7.06,1.02-8.07-.27-.7-1.81-1.34-7.78.99-8.46Z"/>
  <path d="M357.94,401.18c-.82-.51-1-7.32-.13-8.5,1.06-1.35,6.01-.82,7.75-.5,1.53.9,1.43,6.76.6,8.3-1.15,1.47-6.27.59-8.22.69Z"/>
  <path d="M169.76,404.12c1.33-.39,6.52-.41,7.36.66.72,1.56,1.02,7.06-.27,8.08-1.56.72-7.06,1.02-8.07-.27-.7-1.81-1.34-7.78.99-8.46Z"/>
  <path d="M393.16,392.59c8.34-2.65,10.15.53,8.15,8.42-1.84.23-7.24.86-8.33-.53-.78-1.44-.87-6.84.18-7.89Z"/>
  <path d="M416.79,392.59c8.34-2.65,10.15.53,8.15,8.42-1.84.23-7.24.86-8.33-.53-.78-1.44-.87-6.84.18-7.89Z"/>
  <path d="M98.88,404.12c1.33-.39,6.52-.41,7.36.66.72,1.56,1.02,7.06-.27,8.08-1.56.72-7.06,1.02-8.07-.27-.7-1.81-1.34-7.78.99-8.46Z"/>
  <path d="M110.96,404.12c1.33-.39,6.52-.41,7.36.66.72,1.56,1.02,7.06-.27,8.08-1.56.72-7.06,1.02-8.07-.27-.7-1.81-1.34-7.78.99-8.46Z"/>
  <path d="M146.13,404.12c1.33-.39,6.52-.41,7.36.66.72,1.56,1.02,7.06-.27,8.08-1.56.72-7.06,1.02-8.07-.27-.7-1.81-1.34-7.78.99-8.46Z"/>
  <path d="M311.52,2.3c1.22-.41,6.57-.35,7.38.68.72,1.56,1.02,7.06-.27,8.08-1.56.72-7.06,1.02-8.07-.27-.85-1.75-1.04-7.81.97-8.48Z"/>
  <path d="M417.59,356.85c1.33-.39,6.52-.41,7.36.66.72,1.56,1.02,7.06-.27,8.08-1.54.83-7.4.94-8.3-.6-.28-1.98-1.15-7.44,1.22-8.14Z"/>
  <path d="M193.37,2.3c1.22-.41,6.57-.35,7.38.68.72,1.56,1.02,7.06-.27,8.08-1.56.72-7.06,1.02-8.07-.27-.85-1.75-1.04-7.81.97-8.48Z"/>
  <path d="M252.74,49.59c1.41-.42,6.78-.38,7.59.98.32,1.74.85,6.69-.5,7.75-1.56.72-7.06,1.02-8.07-.27-.7-1.81-1.34-7.78.99-8.46Z"/>
  <path d="M252.74,333.21c1.41-.42,6.78-.38,7.59.98.32,1.74.85,6.69-.5,7.75-1.56.72-7.06,1.02-8.07-.27-.7-1.81-1.34-7.78.99-8.46Z"/>
  <path d="M4.92,333.22c1.47-.32,5.9-.5,6.8.65.72,1.56,1.02,7.06-.27,8.08-1.56.72-7.06,1.02-8.07-.27-.64-2.51-1.69-7.75,1.55-8.45Z"/>
  <path d="M252.74,132.59c1.33-.39,6.52-.41,7.36.66,2.32,7.78-.89,10.46-8.35,7.8-.7-1.81-1.34-7.78.99-8.46Z"/>
  <path d="M252.74,85.32c1.33-.39,6.52-.41,7.36.66,2.32,7.78-.89,10.46-8.35,7.8-.7-1.81-1.34-7.78.99-8.46Z"/>
  <path d="M4.92,309.59c1.47-.32,5.9-.5,6.8.65.72,1.56,1.02,7.06-.27,8.08-1.56.72-7.06,1.02-8.07-.27-.64-2.51-1.69-7.75,1.55-8.45Z"/>
  <path d="M252.74,120.5c1.41-.42,6.78-.38,7.59.98.32,1.74.85,6.69-.5,7.75-1.56.72-7.06,1.02-8.07-.27-.7-1.81-1.34-7.78.99-8.46Z"/>
  <path d="M169.76,298.03c1.33-.39,6.51-.41,7.36.66.72,1.56,1.02,7.06-.27,8.08-1.44.7-6.76.95-7.76-.04-1.25-1.24-1.55-8.04.67-8.7Z"/>
  <path d="M193.37,415.64c1.22-.41,6.57-.35,7.38.68.72,1.56,1.02,7.06-.27,8.08-1.56.72-7.06,1.02-8.07-.27-.85-1.75-1.04-7.81.97-8.48Z"/>
  <path d="M4.36,227.13c1.33-.39,6.52-.41,7.36.66.72,1.56,1.02,7.06-.27,8.08-1.54.83-7.4.94-8.3-.6-.28-1.98-1.15-7.44,1.22-8.14Z"/>
  <path d="M11.59,298c.82.51,1,7.32.13,8.5-1.06,1.35-6.58.99-8.17.09-1.05-1.05-.96-6.45-.18-7.89,1.15-1.47,6.27-.59,8.22-.69Z"/>
  <path d="M4.92,238.68c1.47-.32,5.9-.5,6.8.65.72,1.56,1.02,7.06-.27,8.08-1.56.72-7.06,1.02-8.07-.27-.64-2.51-1.69-7.75,1.55-8.45Z"/>
  <path d="M335.17,250.76c1.33-.39,6.51-.41,7.36.66.72,1.56,1.02,7.06-.27,8.08-1.44.7-6.76.95-7.76-.04-1.25-1.24-1.55-8.04.67-8.7Z"/>
  <path d="M134.59,250.76c1.33-.39,6.52-.41,7.36.66.83,1.54.94,7.4-.6,8.3-1.74.32-6.69.85-7.75-.5-.7-1.81-1.34-7.78.99-8.46Z"/>
  <path d="M51.62,250.76c1.33-.39,6.51-.41,7.36.66.72,1.56,1.02,7.06-.27,8.08-1.44.7-6.76.95-7.76-.04-1.25-1.24-1.55-8.04.67-8.7Z"/>
  <path d="M4.92,167.78c1.47-.32,5.9-.5,6.8.65.72,1.56,1.02,7.06-.27,8.08-1.56.72-7.06,1.02-8.07-.27-.64-2.51-1.69-7.75,1.55-8.45Z"/>
  <path d="M215.67,201.32c4.01-4.01,9.04,6.05,1.79,5.41-2.9-.26-3.26-3.94-1.79-5.41Z"/>
  <path d="M199.44,200.72c3.8-1.15,5.96,4.67,2.55,5.86-5.27,1.84-5.69-4.91-2.55-5.86Z"/>
  <path d="M224.68,219.4c4.67-1.57,6.33,3.93,1.99,4.79-3.43.68-3.71-4.21-1.99-4.79Z"/>
  <path d="M242.9,223.58c-3.41,3.2-7.37-3.5-2.88-4.26,3.31-.56,4.23,2.99,2.88,4.26Z"/>
  <path d="M26.9,23.77c9.13.57,20.11-1.16,29.02-.13,2.43.28,3.29,1.16,3.57,3.57.73,6.26.64,21.71.02,28.08-.2,2.08-.72,3.27-3.03,3.57-9.05-.68-19.16.81-28.08,0-3.12-.28-3.83-.96-4.12-4.12-.58-6.38-.72-21.29.02-27.52.21-1.78.75-2.98,2.6-3.44Z"/>
  <path d="M381.33,23.77c9.13.57,20.11-1.16,29.02-.13,2.43.28,3.29,1.16,3.57,3.57.73,6.26.6,21.12.02,27.52-.24,2.65-.73,3.77-3.59,4.11-6.21.73-21.74.64-28.07.02-2.08-.2-3.27-.72-3.57-3.03.83-9.05-1.02-19.78.02-28.62.21-1.78.75-2.98,2.6-3.44Z"/>
  <path d="M26.9,378.29l29.58-.15c1.65.05,2.97,1.39,3.02,3.02-.68,9.05.81,19.17,0,28.09-.24,2.65-.73,3.77-3.59,4.11-6.22.73-21.14.6-27.51.02-3.12-.28-3.83-.96-4.12-4.12-.58-6.38-.72-21.29.02-27.52.21-1.78.75-2.98,2.6-3.44Z"/>
</svg>